<svg xmlns="http://www.w3.org/2000/svg" viewBox="0 0 322.67 97.8"><defs><style>.cls-1{fill:#6f834e;}.cls-2{fill:#27221f;}</style></defs><g id="Layer_2" data-name="Layer 2"><g id="Layer_1-2" data-name="Layer 1"><path class="cls-1" d="M218.59,62.25a5.32,5.32,0,0,0-.57.16,32.51,32.51,0,0,1-3.85,1.35l-.13,0,.2-.12h-.11c-.89.2-1.77.41-2.66.58s-2.09.4-3.14.54c-.88.11-1.76.15-2.65.2-.22,0-.44,0-.66,0h-.26a.87.87,0,0,1-.53,0s-.14,0-.11.07a.92.92,0,0,1-.16,0c-.23,0-.45,0-.68-.06a3,3,0,0,0-.6,0,5.08,5.08,0,0,1-1.1-.06c-.58,0-1.16-.1-1.76-.15l.11-.09-3.4-.66h0l.22.09c.16.06.34.08.43.26s.12.06.18.08l.27.12v0l-.52,0v0l.13.07c.09,0,.19,0,.25.09a3.06,3.06,0,0,0,1.17.43.65.65,0,0,1,.48.29.24.24,0,0,0,.12.07,5.39,5.39,0,0,0,.86.21c.68.08,1.35.12,2,.17l.15,0v0h-.4l-1.21,0c-.11,0-.23,0-.31.09s-.08,0-.12,0l-.43-.09-.71-.13a.55.55,0,0,0-.49.16l1,.22a1.76,1.76,0,0,1,.81.34c.07.06.13.11.12.22s.05.09.09.18h-.94V67c.35.17.75.16,1.12.32l-.27.09v0l.54.17c-.22.12-.44,0-.66,0,0,.13,0,.19.12.21l.69.13.28,0v0a.76.76,0,0,1-.15,0c-.3,0-.61-.1-.91-.17l-.58-.14,0,.06.2.08c.08,0,.2,0,.23.17s.1,0,.15.06l.65.11a.67.67,0,0,1,.26.09l-.08,0a.16.16,0,0,0-.1,0l.44.1a.49.49,0,0,1-.54.17,12.88,12.88,0,0,1-1.47-.32l.35,0,.86.12v0a2.82,2.82,0,0,0-.87-.07c-.13,0-.26-.06-.39-.11s-.18-.1-.28-.15a.29.29,0,0,0-.13,0,3.15,3.15,0,0,0-.8-.08,5.05,5.05,0,0,1-1.55-.22,1.41,1.41,0,0,0-.76,0c0,.14.16.14.26.16l1.37.32.17.07-.2.11c.21.35,2,.63,2.6.61-.52-.19-1-.22-1.49-.41v0l.27,0,1.81.37c.06,0,.17,0,.14.12a.78.78,0,0,0,.16.06.64.64,0,0,1,.44.19,1.3,1.3,0,0,1-.27.08,4.58,4.58,0,0,1-.74,0c-.6-.11-1.19-.24-1.79-.36l-1.86-.37a.57.57,0,0,0-.26,0l.33.19V69l-.39.1.08.11h0l-.44-.1c-.16,0-.3,0-.34.18l-.44,0v.06c.16,0,.31.1.46.13l2,.4,1.53.24.29,0,1.2.3a1.73,1.73,0,0,1,.24.1v.06h-1.9l.22.11v0l-1.86-.56V70.1l.29.06,1.23.28a.52.52,0,0,0,.42,0c.06,0,.17,0,.27,0l-.12-.05a5.62,5.62,0,0,0-.82-.14,6.62,6.62,0,0,1-1.4-.24l-.81-.19-.17,0,0,0,.51.24v.06a1.34,1.34,0,0,1-.2,0c-.22,0-.44-.1-.67-.13a.88.88,0,0,0-.36,0,1.44,1.44,0,0,0,.67.32c.24.08.48.15.72.25A15.12,15.12,0,0,1,195,70c-.7-.23-1.42-.36-2.12-.62s-1.39-.41-2.09-.62l0,0,.17.12,0,0-.22-.12a3.24,3.24,0,0,0-.91-.35c-.05,0-.18,0-.09-.12s0-.05-.06-.06a1.57,1.57,0,0,0-.42-.13l.43.37,0,0c-.07,0-.15,0-.2,0L188.25,68l0-.06.17.06,0,0-.51-.25,0,0,.38.14v0c-.65-.33-1.28-.67-1.94-1a15.58,15.58,0,0,1-1.94-1c-.61-.38-1.22-.76-1.85-1.12a7.15,7.15,0,0,0,1.45,1.11l0,0-.94-.54,0,.16-.07,0a10.36,10.36,0,0,1-1.35-.92L181,64a1,1,0,0,0-.17-.1l0,.05.27.16-.05,0-.08,0c.35.26.72.48,1,.77a9.32,9.32,0,0,0,1,.66l1.63,1.14.94.62a.6.6,0,0,1,.21.21l-.32,0,.2.17h-.14l0,0,1,.65,0,0a.23.23,0,0,1-.12,0c-.28-.15-.56-.3-.83-.47a10.84,10.84,0,0,0-2.05-1.28h-.07a3.48,3.48,0,0,0,.58.51l.6.49,0,.06a1.07,1.07,0,0,1-.22-.1c-.37-.22-.74-.45-1.1-.69s-.44-.33-.66-.49L182,66l0-.06.9.61,0,0a1.37,1.37,0,0,0-.52-.49,1.48,1.48,0,0,1-.3-.21l-.65-.57c-.19-.17-.36-.36-.54-.53l-.14-.12c-.13-.1-.25-.19-.37-.3l-1-.87L179,63,177.8,62l-.25-.24-.89-1h0c-.11-.12-.26-.24-.13-.45a1,1,0,0,1,.45.55.4.4,0,0,0,.11.19l1,.89a1.24,1.24,0,0,0,.26.19c0-.23-.24-.33-.38-.5l.08-.11.57.36a.22.22,0,0,0-.16-.21.39.39,0,0,1-.11-.06l-.75-.77s0,0,0,0c.06-.26-.17-.37-.3-.46a3.3,3.3,0,0,1-.46-.54l-.47-.52-.39-.42,0,0,.8,1,0,0-.19-.18L175.7,59l-.07-.07-.92-1.09c-.07-.09-.13-.2-.27-.19s-.06,0-.09-.06a4.29,4.29,0,0,1-.69-.84c-.18-.31-.39-.59-.58-.89l-.41-.59a12.05,12.05,0,0,1-.68-1.07c-.15-.29-.38-.53-.53-.82-.05-.11-.09-.22-.13-.32l0,0,.25.41c.09.15.18.31.28.46s.07.11.12,0h0l.36.34s0-.06,0-.1c-.2-.36-.37-.74-.59-1.09a2.45,2.45,0,0,1-.36-.81.12.12,0,0,1,0-.1c.17.31.36.62.52.94.29.57.67,1.08,1,1.62.05.08.09.16.14.23s.08.11.12.11c.23,0,.28.19.33.32s.07.27.31.43c0,0,0,0,0,0a4.72,4.72,0,0,0,.68.79s0,.08.05.13h-.18l.14.17a2.35,2.35,0,0,1,.5.7.86.86,0,0,0,.27.33c.19.18.39.34.56.53l-.79-1c.14,0,.18,0,.23.11l.42.59a.82.82,0,0,0,.2.17.73.73,0,0,1,.09.08,1.62,1.62,0,0,0,.92.86,1.12,1.12,0,0,1,.29.21c.17.13.34.27.52.39-.14-.2-.37-.35-.39-.67l.83.79,0,0-.14-.19-1.45-1.59-.64-.71c0-.06-.13-.1-.19-.16a.47.47,0,0,1-.13-.15c-.08-.13-.13-.27-.22-.39-.21-.29-.45-.55-.65-.84a6.56,6.56,0,0,1-.78-1.23,1.51,1.51,0,0,0-.18-.26l-1-1.7c-.13-.21-.29-.42-.43-.63l-.17-.28c-.12-.23-.25-.45-.35-.68-.3-.62-.6-1.25-.88-1.88s-.52-1.26-.78-1.89c0,0,0,0,0-.08a1.16,1.16,0,0,0-.13-.66,1.81,1.81,0,0,0-.25-.63s0-.1,0-.16a.65.65,0,0,0-.06-.21,1,1,0,0,1-.19-.58,2.45,2.45,0,0,0-.08-.37,19.79,19.79,0,0,1-.71-2.85,9,9,0,0,1-.16-1c0-.27,0-.54,0-.81,0-.09,0-.19-.07-.29a.7.7,0,0,1,0-.14l-.12-2.26a7.5,7.5,0,0,1,0-1.34c0-.28,0-.56.05-.84a6,6,0,0,0,0-.85c0-.09.07-.22-.09-.25s0-.07,0-.11c0-.22,0-.43.05-.64l0,.11h0c0-.2.05-.4.08-.6.08-.75.17-1.51.24-2.26a22.71,22.71,0,0,1,.46-2.72c.08-.36.19-.71.29-1.07s.09-.49.15-.72c.16-.54.32-1.07.49-1.61a5.12,5.12,0,0,0,.24-.85,2.1,2.1,0,0,1,.18-.65c0-.07.14-.12.18-.2a1.34,1.34,0,0,0,.15-.41l-.1.07a5.24,5.24,0,0,1,.18-.52c.13-.31.25-.63.4-.93s.35-.62.51-.93.2-.5.32-.74a3.58,3.58,0,0,1,.3-.49s.06,0,.09,0,.05,0,.05,0c.09-.22.29-.39.28-.67l-.22.33,0,0c.25-.41.48-.83.75-1.23.51-.76,1-1.52,1.56-2.27a1.71,1.71,0,0,1,.41-.44,1.43,1.43,0,0,0,.51-.64,2.18,2.18,0,0,1,.54-.78c.49-.56,1-1.11,1.51-1.65.26-.27.53-.52.79-.77l.75-.69.26-.31.17-.19,1.58-1.34c.36-.29.74-.55,1.12-.81s.8-.5,1.19-.75c.55-.36,1.09-.74,1.65-1.08.33-.21.68-.39,1-.57.06,0,.14,0,.21,0s.24,0,.21-.15c0,0,.08-.09.13-.11.53-.27,1.07-.54,1.61-.79s1-.38,1.47-.58l.34-.14L190.32,3a2.35,2.35,0,0,0-.81.27,3.49,3.49,0,0,1-.39.19,21.9,21.9,0,0,0-2.06.87,1.17,1.17,0,0,1-.46.13,1.48,1.48,0,0,1,.13-.08l1.6-.74c.24-.12.49-.23.75-.34l.58-.22c.59-.22,1.18-.45,1.79-.66S192.5,2.11,193,2s1.25-.32,1.88-.48l.32-.08.91-.21a2.54,2.54,0,0,0,.36-.1l-.16-.05.24-.05s0,.06,0,.07.06,0,.08,0a13.78,13.78,0,0,0,1.82-.1,3.6,3.6,0,0,1,.66,0,2.63,2.63,0,0,1,.39-.06l1.84,0h.82l.16,0v0l-.58,0h-.55c-.27,0-.53,0-.79,0a1.3,1.3,0,0,0-.79.23,1.74,1.74,0,0,0,.23,0c.42,0,.84-.05,1.27-.06a43.63,43.63,0,0,1,4.57.17,3.53,3.53,0,0,1,.54.13,1.37,1.37,0,0,0,.28.05l1.18.21.61.1.67.12v0c-.27,0-.55-.05-.82-.1a25.13,25.13,0,0,0-3.21-.4c-.84-.05-1.69-.08-2.53-.12l-.39,0-.85,0c-.41,0-.83,0-1.24.08l-2.29.24c-.31,0-.62.11-.93.16l-.58.09-.39.08v0l.19,0c.38-.07.75-.15,1.12-.2s.79-.07,1.18-.12.58-.1.88-.12a4.73,4.73,0,0,1,.65,0l.42,0c.53,0,1.06-.07,1.59-.09s.79,0,1.18,0a1.25,1.25,0,0,1,.32.08l.12,0,1.36.14a2,2,0,0,0,.35,0,6.12,6.12,0,0,1,1.41.18,2,2,0,0,0,.25,0l.63,0v0l-.13.08,1.48.25c.2,0,.41.11.61.17l.62.13.66.18,1.5.41.22.07,1,.32a2.18,2.18,0,0,1,.23.09,4.71,4.71,0,0,0,1.29.54l.37.13s0,.07.07.1h0c-.1,0-.13,0-.07.08a.38.38,0,0,0,.26.13A.69.69,0,0,1,216,5a.91.91,0,0,0,.48.26,2.39,2.39,0,0,1,.43.2l.79.36,0,0c.15.24.47.26.64.48l-1-.49,0,0a.83.83,0,0,0,.16.09,3.64,3.64,0,0,1,.85.55,1.62,1.62,0,0,0,.59.17.47.47,0,0,1,.19.06,9,9,0,0,1,1.36.84,28,28,0,0,1,2.61,1.9c.58.49,1.14,1,1.7,1.51a.47.47,0,0,1,.15.19A30.66,30.66,0,0,0,219.39,7a.53.53,0,0,0,.12.1l.31.21a1.24,1.24,0,0,1,.43.36,1.35,1.35,0,0,0,.37.3,2.36,2.36,0,0,0,.38.22l-.1-.13,0,0,.18.11c.33.24.67.48,1,.73l2.08,1.72s.05,0,.05.05a.39.39,0,0,0,.25.31,1.25,1.25,0,0,1,.53.58,1.85,1.85,0,0,0,.41.43c.11.1.24.18.35.29.33.34.66.7,1,1.05l.28.25a1.63,1.63,0,0,1,.17.2,1.7,1.7,0,0,0,.15.22,20.39,20.39,0,0,1,1.46,1.87l.19.27a16.54,16.54,0,0,1,1.52,2.29,26.51,26.51,0,0,1,1.39,2.5c.35.78.67,1.58,1,2.37,0,.12.09.26.13.39h0s-.09-.08-.1-.12c-.14-.34-.27-.69-.4-1-.06-.14-.14-.27-.21-.4l-.05,0a1.46,1.46,0,0,0,.07.19c.25.65.54,1.29.76,1.95s.47,1.58.7,2.37a27.91,27.91,0,0,1,.93,4.54c.08.67.15,1.33.17,2,0,.5.08,1,.08,1.51s0,1.28,0,1.92c0,.42-.08.84-.1,1.26a38.48,38.48,0,0,1-.53,4.28,18.06,18.06,0,0,1-.6,2.41c-.4,1.21-.8,2.42-1.23,3.63A26.58,26.58,0,0,1,231,51.63c-.29.55-.58,1.11-.91,1.64a8.51,8.51,0,0,1-.89,1.35c-.19.21-.34.45-.51.67,0,.06-.06.13-.1.18a1.34,1.34,0,0,1-.18.28c-.57.69-1.14,1.39-1.73,2.06-.42.48-.88.92-1.33,1.37-.25.24-.51.49-.78.72s-.75.6-1.14.89a23.75,23.75,0,0,1-2.81,1.83c-.43.24-.86.47-1.3.69a5.83,5.83,0,0,1-.58.23l0,0,.32-.16c.43-.21.87-.4,1.28-.64a13.36,13.36,0,0,0,1.66-1c.3-.23.63-.42.93-.65a4.36,4.36,0,0,0,.43-.43l0,0L221.27,62l.06.07,0,0a5.64,5.64,0,0,0-1.49.8,1.76,1.76,0,0,1-.37.17l-.28.14a6.07,6.07,0,0,0-.79.34c-.49.3-1.08.36-1.59.61a.49.49,0,0,1-.27,0,.85.85,0,0,1,.19-.14l1.08-.47,1.78-.8a4.68,4.68,0,0,0,.55-.27c.16-.1.35-.18.28-.45a22.58,22.58,0,0,1-2.8,1.35,23.1,23.1,0,0,1-3,1l2.08-.76a15.34,15.34,0,0,0,2.06-.84l0-.05-.26.11a12.4,12.4,0,0,1-1.79.67c-.33.08-.65.23-1,.33l-.8.22-.55.18c-.16,0-.31.15-.5.08a.45.45,0,0,0-.22,0c-.18.05-.36.08-.54.14a4.43,4.43,0,0,1-.47.17c-.8.18-1.6.33-2.4.5h-.1l1.8-.43.76-.2.84-.2a1.31,1.31,0,0,0,.71-.31.69.69,0,0,1,.15-.07l.78-.28c.51-.19,1-.35,1.54-.56s1.26-.55,1.89-.83a1.35,1.35,0,0,0,.6-.32A1.19,1.19,0,0,0,218.59,62.25Zm1.11-47.9-.21-.16a4.32,4.32,0,0,0-.89-.69l0,.11-.57-.38s-.07,0-.07-.06c-.06-.26-.35-.22-.47-.44l0,.22.43.32.4.29,0,0-.32-.15c.12.24.13.24.34.33.06,0,.1.08.15.13s.23.17.34.26.11.05.14.09a3.55,3.55,0,0,0,.75.7,5.91,5.91,0,0,0,1.13.92c.05,0,.08.08.13.13l.24.24c.12.12.25.23.35.35s.43.5.63.75A13.3,13.3,0,0,1,223.53,19c.07.11.11.23.18.34s.33.45.49.69.51.74.75,1.12a2.07,2.07,0,0,1,.15.34l-.06,0c-.12-.19-.23-.39-.34-.58s-.19-.35-.31-.52c-.22-.34-.46-.67-.7-1a1.36,1.36,0,0,0-.17-.17c-.07-.07-.14-.13-.21-.21a26.56,26.56,0,0,0-1.88-2.22c-.57-.55-1.08-1.16-1.69-1.65-.45-.36-.87-.75-1.32-1.11a2,2,0,0,0-.31-.19l-.19-.12c-.26-.18-.51-.38-.78-.55s-.54-.28-.8-.42l-1.07-.64s-.1,0-.15-.07a.73.73,0,0,0,.1.13l.11.11a25.82,25.82,0,0,0-3.64-1.64,1.35,1.35,0,0,0,.6.37c.32.14.64.3,1,.45h0l-2.64-1,0,.06.39.17,1.44.54c.21.09.4.22.61.33l0,0a1,1,0,0,1-.55-.2,1.12,1.12,0,0,0-.33-.2c-.42-.15-.84-.28-1.26-.41h-.14c0,.12-.12.07-.18.05l-1.19-.36-1-.27h-.2v0a21.35,21.35,0,0,1,2.39.74,3,3,0,0,1-.85-.2,11.8,11.8,0,0,0-2-.5c-.19-.05-.38-.1-.57-.17a2.07,2.07,0,0,0-.61,0v0l.19.12h-.22l-.64,0h-.35a6.27,6.27,0,0,0-1.5-.08s-.11,0-.13,0-.17-.07-.28-.06c.13.19.36.09.55.21h-.37a6,6,0,0,1-1.47,0h-.22l-2.25.24c-.28,0-.56,0-.84.08-.52.08-1,.18-1.53.27a28,28,0,0,0-4.23,1.2A16.9,16.9,0,0,0,191,13a28.1,28.1,0,0,0-3.3,2l-.26.17a6.22,6.22,0,0,0-.58.43c-.49.41-1,.83-1.44,1.24a2.07,2.07,0,0,0-.24.17l-.68.75a2,2,0,0,1-.2.21l-.05,0L185,17l0,0-.24.17,0,0,.86-.81-.13-.09a1.29,1.29,0,0,1,.16-.17l.73-.6.54-.42a.75.75,0,0,0,.13-.18l0,0a1.63,1.63,0,0,0-.19.09l-1.61,1.31a1.66,1.66,0,0,0-.16.21,1.56,1.56,0,0,1-.16.2c-.18.16-.37.3-.54.46-.44.43-.87.89-1.32,1.32a10.68,10.68,0,0,0-1.47,1.81,18.26,18.26,0,0,0-1.06,1.68c-.24.44-.52.86-.73,1.32s-.54,1.1-.79,1.67a26.62,26.62,0,0,0-1.05,2.87c0,.07,0,.15,0,.2a.44.44,0,0,1,0,.34c0,.14-.09.28-.12.42-.12.66-.25,1.32-.37,2a3.52,3.52,0,0,0-.17,1.07.52.52,0,0,1-.1.43.49.49,0,0,0-.08.28c0,.17,0,.35,0,.53l0,.42c0,.11,0,.23,0,.34,0,.3,0,.6,0,.89a3.86,3.86,0,0,0,.06.9s0,0,.06.08a1.46,1.46,0,0,1,0-.34l.12-2.32a.58.58,0,0,1,0-.18c0-.11.09-.21.11-.32s0-.31.06-.45a5.49,5.49,0,0,1,.2-1.33.32.32,0,0,0,0-.14.73.73,0,0,1,.18-.6c-.12-.11-.12-.13,0-.23s.17-.17.12-.35a.25.25,0,0,1,0-.21.91.91,0,0,0,.21-.57.28.28,0,0,1,0-.12c.07-.22.16-.43.22-.65A15,15,0,0,1,179,26a24,24,0,0,1,2-3.93l.21-.34c.08-.15.18-.29.27-.43l.05,0c-.07.13-.14.26-.22.38l-.83,1.36a2,2,0,0,0-.09.22l0,0,.1-.17c.22-.36.41-.72.65-1.06.38-.56.74-1.13,1.13-1.68s.65-.86,1-1.27c.16-.18.34-.35.5-.52l.71-.76.05,0c-.35.4-.71.78-1,1.18s-.62.85-.93,1.27l0,0,.15-.18a4.93,4.93,0,0,1,.36-.53c.53-.59,1.07-1.18,1.61-1.76a1,1,0,0,1,.29-.19l-.74.83c-.35.39-.71.78-1.05,1.17-.14.16-.25.33-.38.5h0l2.52-2.73-.38.23c.11-.13.21-.25.33-.37l1.22-1.17c.47-.44,1.07-.71,1.52-1.18a4.34,4.34,0,0,1,.64-.49,7.89,7.89,0,0,1,1.74-1,5.08,5.08,0,0,0,.47-.23c.3-.16.6-.34.91-.49s.29-.23.45-.31a3.5,3.5,0,0,1,.56-.13c.17,0,.34-.12.51-.17.42-.13.84-.27,1.27-.38.91-.23,1.83-.44,2.75-.66l.78-.16.51-.08,1.54-.27a2,2,0,0,1,.72,0,3.15,3.15,0,0,0,.92,0l-.38,0a1.62,1.62,0,0,1,.38,0c.12,0,.24.07.37.07l1.22,0,.27,0c.36,0,.73.07,1.09.13a2.49,2.49,0,0,1,.44.14h0l-.49-.06a17,17,0,0,0-2.67-.1c-.5,0-1,0-1.5.07l-.9.13a2.9,2.9,0,0,0,.51,0,8,8,0,0,1,1.47,0c.37,0,.75,0,1.12,0l1.78.08-.55.09c-.18,0-.36-.08-.55,0a1.05,1.05,0,0,0,.24.06l2.26.31a21.79,21.79,0,0,1,2.75.61c.18.05.35.14.52.2,0,0,0,0-.07,0l-1.54-.4a1.55,1.55,0,0,0-.8-.06.26.26,0,0,1-.23-.06c-.14-.2-.36-.16-.55-.18s-.41,0-.62,0l-.25,0v0l.54.11a.6.6,0,0,1-.23,0l-1.31-.13h-.43l-1.43-.06a3,3,0,0,0-.42,0c-.13,0-.27,0-.41,0l-1.32.06a2,2,0,0,0-.24,0c0,.18-.11.25-.29.24a1.3,1.3,0,0,0-.34,0c-.24.05-.47.11-.71.15l-1,.18a3.4,3.4,0,0,1-.34.07.88.88,0,0,0-.39.11.36.36,0,0,1-.38,0,2.14,2.14,0,0,1,1-.44c-.07-.15-.17-.11-.26-.08-.6.15-1.21.29-1.81.46s-.92.28-1.37.45a20.55,20.55,0,0,0-3.59,1.67c-.44.27-.91.51-1.35.79s-.84.59-1.26.88a2.88,2.88,0,0,1-.38.22l0,0,.13-.2,0,0-1.77,1.48v-.13a2.39,2.39,0,0,0-.21.26,2,2,0,0,1-.23.18l0,0,.18-.07c-.11.16-.17.28-.36.27,0,0-.1.09-.14.14s0,.13-.06.19l-.39.47h0l-.57.55,0-.15a.81.81,0,0,0-.24.25c-.05.07-.07.16-.12.23a3.37,3.37,0,0,1-.3.36.62.62,0,0,1-.14.14,1.6,1.6,0,0,0-.19.16,17.7,17.7,0,0,0-1.51,2.22c-.36.67-.75,1.32-1.06,2-.1.25-.2.5-.29.76l0,0,.15-.3c.06-.13.1-.28.17-.42.31-.59.65-1.17.95-1.76a13.85,13.85,0,0,1,1-1.65c.05-.07.12-.12.17-.18l0,0c-.1.15-.19.31-.3.45s0,.38-.18.49l0-.13a7.69,7.69,0,0,0-.48.8,3.43,3.43,0,0,1-.41.81,9.2,9.2,0,0,0-.84,1.54c-.3.62-.53,1.28-.77,1.92a5.32,5.32,0,0,0-.16.57h0l.13-.18h0c0,.1,0,.28-.1.3s-.14.16-.18.26c-.13.43-.28.87-.39,1.31s-.24,1-.32,1.45c-.1.66-.18,1.33-.27,2,0,.15-.05.29-.06.43s0,.58-.05.87,0,.4,0,.59,0,.29,0,.44a3.09,3.09,0,0,0,0,.43c.07.59.14,1.17.23,1.75a6.65,6.65,0,0,0,.19,1,7.49,7.49,0,0,1,.23.77.87.87,0,0,0,.22.5,3,3,0,0,0,0-.31c0-.1,0-.2,0-.3h0l.13.26.1-.07.09.2c-.06-.64-.19-1.26-.21-1.89h0l.19.28c0-.16,0-.3,0-.44s0-.15,0-.23,0-.28,0-.42c0-.35-.08-.71-.12-1.06,0-.08-.05-.19,0-.24a.76.76,0,0,0,.07-.49,3.09,3.09,0,0,1,0-1,.2.2,0,0,0,0-.11c0-.19,0-.38,0-.57s0-.27,0-.4h0a22.13,22.13,0,0,0,.08,4.53h0l-.05-.2-.06.12-.06,0a3.94,3.94,0,0,0,0-.84v0c0-.12,0-.23,0-.35,0-.29,0-.58,0-.87s0-.52.05-.78c0-.47,0-.94.08-1.41s0-.66.08-1,.08-.54.13-.81h0l-.13,1.17h.07l.28-2h0l-.11.37-.05,0a.59.59,0,0,1,0-.13,5.39,5.39,0,0,1,.34-1.15,3.83,3.83,0,0,0,.24-.79,1.38,1.38,0,0,1,.15-.4,1.33,1.33,0,0,0,.23-.46,2.41,2.41,0,0,0,.08-.25.93.93,0,0,1,0,.33c-.17.6-.34,1.2-.52,1.81a.62.62,0,0,0,0,.18.83.83,0,0,1-.07.56.66.66,0,0,0-.06.2c0,.39-.1.79-.14,1.19a1.7,1.7,0,0,0,0,.22h0l.1-.24.05,0-.13.8h0l0-.2a.74.74,0,0,0-.18.52,3.12,3.12,0,0,1-.05,1,.88.88,0,0,0,0,.23l0,.82c0,.13-.08.29.1.38,0,0,0,.06,0,.09,0,.24,0,.48,0,.73,0,0,0,.1-.07.14s-.05.17,0,.25a.43.43,0,0,1,.09.16c0,.29.06.58.1.87s.07.59.13.88.14.35.18.54c.11.45.2.91.31,1.37a5.75,5.75,0,0,0,.21.67c.05.12.12.24.18.36h0l-.2-.8h0L181,41h0l-.07-.36,0,0a.09.09,0,0,1,0,0l.18.9v0c0,.14,0,.2.16.25v-.44a1.5,1.5,0,0,1,.47.86,3.33,3.33,0,0,1,.18.67,5.06,5.06,0,0,0,.41,1,.18.18,0,0,0,.07.1,1.47,1.47,0,0,1,.32.5c.13.27.28.53.42.8l0,0c-.06-.15-.1-.3-.16-.45l-.19-.39-.42-1.1c0-.06-.07-.1-.1-.16a.8.8,0,0,1,0-.15l0,0a6,6,0,0,1,.43.79c.13.4.39.74.54,1.13a.24.24,0,0,0,.06.08.65.65,0,0,1,.24.35,5.29,5.29,0,0,0,.29.52c.08.12.18.23.26.35.2.3.37.64.59.92.45.55.92,1.08,1.39,1.62a.86.86,0,0,0,.14.13l0,0a15.6,15.6,0,0,1-1.63-2.26,2.16,2.16,0,0,1,.25.27c.31.37.61.75.92,1.11s.53.58.77.89a5.48,5.48,0,0,0,.75.69v-.14l.51.45a.42.42,0,0,0,.39.17l-.15-.1,0-.09a.44.44,0,0,0,0-.16c0-.07-.09,0-.13,0a.31.31,0,0,1-.2-.09c-.11-.11-.21-.24-.31-.36s-.06-.06-.06-.08,0-.17-.09-.24l-.45-.61.08,0-.3-.39,0,0s.1,0,.13.08.21.23.32.35.33.38.51.56a.4.4,0,0,0,.16.08l0-.05-.42-.48,0,0,.6.59c.05-.23-.17-.26-.21-.44l.67.67v-.11a.61.61,0,0,1,.35.39.2.2,0,0,0,.11.14,2,2,0,0,1,.51.31l.23.14,2.6,2.15a.54.54,0,0,1,.23.47.42.42,0,0,0,.16.36,3.11,3.11,0,0,1,.2.25c-.22,0-.29-.24-.54-.16l.83.62c-.34,0-.49-.31-.79-.36a2.83,2.83,0,0,1,.25.31.28.28,0,0,1,0,.18s-.11,0-.16,0h-.12c0,.12,0,.17.1.24a7.52,7.52,0,0,1,.51.64c.1.14.06.21-.09.24a3.09,3.09,0,0,1-.43,0h-.26a.3.3,0,0,0,.08.15,4.53,4.53,0,0,0,.57.51,2.25,2.25,0,0,1,.65.85.48.48,0,0,0,.19.21c.32.15.56.44.91.5,0,.06-.07.11-.06.15,0,.24.28.22.46.35l-.43-.07.29.5a1.18,1.18,0,0,1-.83.14c-.29,0-.57,0-.86,0,.12.15.35.15.46.35l-.31.1a1.67,1.67,0,0,0,.07.35.68.68,0,0,1-.06.59h-.88l0,.2a.18.18,0,0,0-.26.17c0,.12,0,.24,0,.34s-.26.06-.39.11-.12.12,0,.21h0l-.06,0-.15.16a1.83,1.83,0,0,0,.16.13l.32.15v0l-.48-.17,0,0,0,.09c0,.05-.13.1-.13.13a.43.43,0,0,0,.13.14l.07,0c.38.14.76.3,1.14.43.74.27,1.48.51,2.21.77a2.74,2.74,0,0,1,.74.31,1.94,1.94,0,0,0,.77.33l.88.25a1.13,1.13,0,0,1,.21.12l0,0-.18,0-.64-.14-.68-.16,0,0-.5-.2s-.06,0-.1,0l0,.05,1.56.44h-.75a2.2,2.2,0,0,0,.44.12,23.94,23.94,0,0,0,3.46.64c.79,0,1.57.16,2.35.23.32,0,.63,0,.95,0a2.89,2.89,0,0,0,.88,0h.17l2,0a7,7,0,0,0,.8-.07c.43-.05.85-.12,1.27-.18a21.39,21.39,0,0,0,2.86-.5c.72-.21,1.46-.38,2.2-.58a4.13,4.13,0,0,0,.45-.17v0c-.24,0-.48.08-.71.14l-1.31.3a.55.55,0,0,1-.18,0,1.43,1.43,0,0,0-.65.1l-.26.07-1.5.21-1.45.22a.9.9,0,0,1-.51-.09l.76-.14v0a23.36,23.36,0,0,1-3.74.07,1.22,1.22,0,0,1,.26-.06l1.21-.12c.4,0,.81,0,1.2-.1.58-.09,1.16-.2,1.74-.31a6.07,6.07,0,0,0,.82-.19c.91-.3,1.85-.53,2.77-.77l.63-.2v0l-.38,0v0a.91.91,0,0,1,.25-.11,3.8,3.8,0,0,0,1-.31l.18-.08a.12.12,0,0,0-.11,0l-1.54.4c-.37.1-.73.19-1.1.27l-.51.12s-.12,0-.12.05-.14.12-.23.14l-.92.2h-.12v0l.87-.22h0l-.52,0v0l.5-.12.3-.06c.6-.17,1.19-.35,1.79-.51a21.31,21.31,0,0,0,2.61-.81l2.29-.91a12.48,12.48,0,0,0,1.34-.61,18.23,18.23,0,0,0,2.83-1.87c.15-.12.32-.22.47-.35s.37-.35.56-.52c.41-.38.84-.74,1.23-1.14s.7-.79,1-1.19c.22-.25.43-.49.62-.75l.83-1.17c.09-.13.17-.28.26-.42.23-.39.49-.77.71-1.16s.45-.87.7-1.3c.53-.94.9-2,1.34-2.94.18-.38.31-.78.46-1.18l.21-.56.63-1.84a.47.47,0,0,1,.06-.09c-.17,1.21-.59,2.35-.86,3.53.18-.44.36-.88.52-1.33.43-1.16.55-2.41.95-3.58a12.35,12.35,0,0,0,.33-1.49q.12-.62.18-1.23c0-.39.05-.79.08-1.18s.07-.63.08-.95c0-.51,0-1,0-1.55,0-.2,0-.4,0-.6s0-.6,0-.91c0-.49-.07-1-.1-1.47l0-.45,0,0,.05.06a11.39,11.39,0,0,0-.12-1.31c-.05-.33-.1-.67-.16-1a2,2,0,0,0-.26-.86v-.14c-.05-.27-.08-.55-.15-.82-.23-.77-.48-1.54-.72-2.31,0-.13-.1-.26-.15-.38l-.23-.6a26.35,26.35,0,0,0-3.61-6.71l-.05,0,.19.38a.67.67,0,0,1-.18-.11,7,7,0,0,1-.88-1.13l-.35-.54-.05,0a1.23,1.23,0,0,0,0,.19.67.67,0,0,0,.11.18l0,0a3.5,3.5,0,0,1-.44-.5l-.5-.58,0,0c.12.16.24.32.37.47s.12.05.18.08a2.21,2.21,0,0,0,.12.27c.07.11.16.22.24.33l0,0-.62-.69c-.14-.14-.27-.29-.4-.44l-.18-.22c-.06-.08-.09-.18-.16-.26s-.24-.25-.36-.37a3,3,0,0,1-.51-.56.24.24,0,0,0-.32-.09l.12.12c.13.13.27.25.39.38s.32.37.49.56l.94,1,.28.36.19.27-.06.05c-.2-.25-.39-.51-.6-.75s-.44-.48-.67-.71-.45-.45-.67-.67-.48-.44-.7-.67a8.42,8.42,0,0,0-.7-.64l-.08.09.39.31c-.26-.2-.51-.41-.75-.62,0,0-.09-.09-.08-.11s-.05-.13-.11-.18l-.81-.63a.39.39,0,0,0-.1-.08L219,11.66a3.27,3.27,0,0,0-.33-.14.43.43,0,0,1-.12-.11,1.14,1.14,0,0,0-.15-.16l-.72-.47c-.11-.07-.21-.16-.33-.23l-1-.57a1.45,1.45,0,0,0-.76-.27s0-.08,0-.1L215,9.36l0,0a1.44,1.44,0,0,0,.61.32c0,.14.1.16.19.2a20,20,0,0,1,2,1.22l.16.13,0,0a1.12,1.12,0,0,0-.22-.16l-.67-.37-.89-.49h0a2.64,2.64,0,0,0-.35-.23l-1.11-.53-.05,0-.9-.43,0,0,.13.18-.32-.09v0l.3.15,1.5.71a15.37,15.37,0,0,1,2,1.17c.07.05.16.09.12.22l-.08,0c-.24-.15-.47-.32-.71-.46-.4-.23-.82-.44-1.23-.65l-1.19-.62-.67-.33a2.71,2.71,0,0,0-.37-.21l-.84-.3a7.54,7.54,0,0,1-.88-.29c-.51-.25-1.1-.26-1.63-.49h0l-1-.21c-.1,0-.16,0-.19.07.43.14.85.26,1.27.41a4.9,4.9,0,0,1,1,.32,5.73,5.73,0,0,0,.81.33l.88.37.75.31a1.1,1.1,0,0,0,.35.11.91.91,0,0,1,.51.14l.5.25s.06.08.09.11a.73.73,0,0,0,.08.09,3.3,3.3,0,0,0,.45.26,20.72,20.72,0,0,1,2.05,1.16,20.37,20.37,0,0,1,2.52,1.88c.15.13.28.27.45.43l-.24,0,.67.58-.09.07-.24-.18,0,.05c.06,0,.11.11.17.17s.38.31.56.48.27.33.42.47a23.09,23.09,0,0,1,2,2.26,6,6,0,0,0,.51.62A7,7,0,0,1,225,20a7.43,7.43,0,0,1-.64-.73c-.21-.27-.4-.56-.62-.83s-.59-.69-.89-1l-.44-.55c-.16-.2-.33-.4-.51-.59s-.17-.17-.23-.15-.16-.1-.24-.15a.16.16,0,0,1-.06-.25l-.54-.44a.18.18,0,0,0-.07-.05.89.89,0,0,1-.54-.41l.13,0A2.51,2.51,0,0,0,219.7,14.35Zm12.05,8a5.44,5.44,0,0,0-.65-1.38,5,5,0,0,0,.24.58c.13.28.27.55.4.82.17.46.34.93.5,1.4.32.9.63,1.81.93,2.72a10,10,0,0,1,.43,1.93c0,.16,0,.31.18.4a.34.34,0,0,1,.08.16c0,.18.08.37.13.55s0,.09,0,.13a.38.38,0,0,0,0-.21c-.09-.44-.18-.88-.29-1.31-.2-.79-.41-1.58-.65-2.35s-.44-1.31-.66-2A7.42,7.42,0,0,0,231.75,22.31ZM192.59,63.38a.54.54,0,0,1-.46-.1c-.16-.1-.28-.05-.45.08l.11,0a.79.79,0,0,0,.45.13c.08,0,.2,0,.19.16l-.38-.07a6.84,6.84,0,0,0,1.83.64l-.18-.09,0-.05.41.13,1.29.35a.86.86,0,0,0,.16,0c-.26-.11-.52-.18-.77-.26s-.3-.08-.34-.28h.37a1.87,1.87,0,0,0-.39-.22.5.5,0,0,1-.31-.22c0-.06-.13-.09-.2-.14l0,.16-.22-.12.18-.24a4.3,4.3,0,0,1-.48-.22c-.14-.1-.35,0-.44-.19a5.53,5.53,0,0,1,.66.2,1.43,1.43,0,0,0,.67.18.52.52,0,0,0-.19-.11L193.6,63l-1.38-.56a.19.19,0,0,0-.24,0c.08.15.33.33.44.31.28,0,.28,0,.42.21l-.46-.14c-.16,0-.22,0-.27.13s0,.2.15.27.21.1.32.15ZM229.54,18.7l.07,0-.35-.5a1.71,1.71,0,0,0-.13-.23l-.51-.69-1.23-1.71a1.77,1.77,0,0,0-.2-.17l0,.05.17.22a7.23,7.23,0,0,1,.82,1.09c.12.22.27.42.4.63,0,0,.1.12.08.16s0,.24.11.34l.21.36c.13.22.25.46.39.68,0,.06.12.1.17.16s.12.17.1.18,0,.12,0,.17a4.33,4.33,0,0,0,.5.92.13.13,0,0,1,0,.09l.32.78a2,2,0,0,0,.11.2,1,1,0,0,1,.26.64c0,.06.05.13.09.19s.13.1.16.16c.12.26.24.52.34.78a.37.37,0,0,1,0,.22c-.11.17,0,.27.09.39s.28.4.4.6.13.19,0,.31,0,.09,0,.14.06.06.07.1c.1.32.19.63.28.95,0,.15.08.31.12.46l.3,1.16s0,.09.05.1c.2.07.16.23.17.39l-.12-.08a.55.55,0,0,0,0,.47,2.7,2.7,0,0,1,.2.54c.08.35.13.72.2,1.07a.39.39,0,0,0,.08.14c0,.07.1.13.14.2s0,.15.08.22a.25.25,0,0,0,0-.14c0-.25,0-.5,0-.74a3.82,3.82,0,0,0-.11-.57c-.07-.3-.16-.6-.24-.9s-.07-.36-.12-.54l-.3-1c-.08-.29-.15-.59-.25-.87-.17-.55-.35-1.1-.53-1.64a1.88,1.88,0,0,1,.36.72c.08.26.16.52.25.78l.28.75A27.84,27.84,0,0,0,229.8,19l0,0,.09.28A1,1,0,0,1,229.54,18.7Zm-51.62,6.61,0-.23a7.6,7.6,0,0,0-.62,1.73.63.63,0,0,0,.12-.21c.14-.4.27-.81.41-1.21,0,0,.05-.06.08-.09-.07.23-.13.45-.21.67s-.15.45-.23.68h0l0-.05a17.28,17.28,0,0,1,.88-2c.21-.42.41-.84.61-1.27a7.14,7.14,0,0,0,.65-1.22.41.41,0,0,1,0-.09l1-1.43c.2-.29.38-.59.59-.87a26.25,26.25,0,0,1,2.44-2.82c.57-.55,1.14-1.09,1.72-1.62.33-.31.67-.6,1-.89s.52-.45.79-.66.32-.25.51-.39a.71.71,0,0,0-.51.21c-.07.07-.16.14-.28.07l.39-.34a.12.12,0,0,0-.11,0c-.38.28-.77.54-1.14.83a19.78,19.78,0,0,0-2.38,2.09c-.23.24-.5.44-.73.68s-.4.49-.61.72a12.2,12.2,0,0,0-1.29,1.67l-1,1.59a10.75,10.75,0,0,0-.94,1.61c-.11.26-.24.51-.36.76l-.47,1.13-.08.17c-.08.16-.16.32-.23.48S178,25.21,177.92,25.31Zm3-6.16a.91.91,0,0,0,.17-.17c.16-.2.3-.42.47-.62s.54-.59.8-.89a1.29,1.29,0,0,0,.09-.16,1.16,1.16,0,0,1,.16-.21l.52-.51c.09-.1.17-.21.26-.32l0,0-.32.31c-.15-.19,0-.28.08-.37l.94-.88a3.4,3.4,0,0,1,.3-.23l0,0-.18.19,0,0c.17-.15.35-.28.51-.44a19.2,19.2,0,0,1,2.1-1.72c.08-.06.24-.09.18-.26,0,0,.05-.06.07-.07a4.59,4.59,0,0,1,1.12-.63.6.6,0,0,0,.11-.06l1.08-.64a4.67,4.67,0,0,1,.49-.27c.21-.1.24-.29.32-.51l-.22.08c-.34.17-.69.33-1,.51-.12.06-.29.09-.32.26l-.11.05c-.12,0-.25.08-.37.14A21.51,21.51,0,0,0,186,13.28c-.39.3-.81.58-1.18.91-.53.46-1,1-1.53,1.44s-.8.83-1.18,1.27c-.56.64-1.13,1.29-1.66,2-.36.47-.67,1-1,1.49-.18.28-.33.58-.5.86l-.64,1.1a1.27,1.27,0,0,0-.06.18l0,0,.22-.38,0,0-.08.18c-.08.15-.17.3-.24.46s-.24.57-.36.85a2.25,2.25,0,0,0-.12.21l-.93,2.33a.19.19,0,0,0,0,.08l0,0,.25-.51.45-.95s.06-.1,0-.13,0-.22.08-.32l.35-.69c-.06,0-.15.11-.18,0a.73.73,0,0,0,.21-.22c.14-.28.25-.58.39-.87s.22-.46.34-.68.36-.58.54-.87a.27.27,0,0,1,.1-.13c.2-.05.24-.23.33-.37s.22-.35.34-.52a2.26,2.26,0,0,0,.27-.36,8.21,8.21,0,0,1,1-1.37,1.53,1.53,0,0,1,.18-.18l.05.05c-.14.19-.3.38-.43.59s-.16.3-.24.45c-.24.16-.54.59-.5.76Zm53.7,13.13h0v-.1c0-.51-.1-1-.16-1.53a37.94,37.94,0,0,0-1.16-5.15c-.22-.8-.5-1.58-.8-2.36s-.65-1.44-1-2.16a12.59,12.59,0,0,0-1-1.9c-.34-.51-.64-1-1-1.56s-.51-.82-.79-1.22-.55-.74-.83-1.11c-.16-.21-.3-.44-.47-.65s-.51-.6-.78-.89-.65-.68-1-1-.52-.57-.8-.84l-1.07-1-.64-.58-.68-.54-.78-.61-.55-.4c-.08-.06-.15-.13-.27-.09a2.09,2.09,0,0,0,.17.14l.16.12c.11.11.21.24.33.34.66.54,1.34,1.07,2,1.63.47.4.91.82,1.34,1.26s1,1,1.41,1.52c.22.27.45.53.66.8.08.1.17.19.25.28.35.42.72.84,1.06,1.27s.49.77.79,1.11a11.85,11.85,0,0,1,1,1.48,20,20,0,0,1,1.07,1.92c.31.61.59,1.25.87,1.87a24.06,24.06,0,0,1,1.16,3.17,23.88,23.88,0,0,1,.82,3.23c.1.64.23,1.28.34,1.92S234.55,31.75,234.64,32.28Zm-7.43-14.39-.05,0a1,1,0,0,0,.11.17l.87,1.28c.22.32.36.68.56,1a16,16,0,0,1,.91,1.74c.28.6.52,1.22.77,1.83a5.42,5.42,0,0,1,.22.56l.6,1.93c.09.32.16.63.23.95.15.6.31,1.2.43,1.81.16.87.3,1.76.43,2.64.06.45.11.9.13,1.36,0,1,.06,1.92.08,2.88,0,.27,0,.55,0,.82a2,2,0,0,0,.08-.49c0-.83.06-1.67,0-2.5s-.09-1.57-.18-2.35-.22-1.27-.31-1.91a17.43,17.43,0,0,0-.47-2.37l-.46-1.57c-.08-.24-.16-.48-.25-.72s-.25-.62-.37-.92c0-.11-.07-.21-.11-.31l-.54-1.26c0-.1-.09-.2-.14-.3l-.42-.84c-.27-.51-.53-1-.82-1.52s-.72-1.11-1.08-1.66A3.61,3.61,0,0,0,227.21,17.89Zm-47.58,7.48-.1.27-.26.72c-.15.42-.32.84-.46,1.26s-.25.89-.37,1.34c-.06.24-.12.48-.17.72s-.09.46-.12.69-.16.48,0,.73a.08.08,0,0,1,0,.08c-.18.19-.13.44-.17.67a11.07,11.07,0,0,0-.11,2c0,.31,0,.61,0,.91a13.09,13.09,0,0,0,.1,2.25,2.35,2.35,0,0,0,.08-.4c0-.5,0-1,0-1.49a7.18,7.18,0,0,1,0-.8c.06-.46.12-.92.14-1.38,0-.26,0-.53,0-.8a2,2,0,0,1,0-.35c.13-.68.28-1.36.39-2.05a12.14,12.14,0,0,1,.52-2.14c.21-.59.41-1.18.62-1.76.07-.18.14-.34.22-.52l.72-1.71a.58.58,0,0,1,.05-.14l0,0-.13.18c-.19.37-.39.73-.56,1.11a3.72,3.72,0,0,0-.11.48,2.85,2.85,0,0,1-.11.3Zm50-4.48h-.05l.28.6c.15.36.3.72.47,1.08a16.36,16.36,0,0,1,.92,2.35c.16.52.35,1,.52,1.55.33,1,.53,2,.76,3,0,.06,0,.12,0,.18s0,.36.07.54c.06.43.13.86.18,1.29s.05.9.12,1.34A11.1,11.1,0,0,1,233,34.6c0,.27,0,.54,0,.81h0l0-.18h0v1h0l0-.2c.07.68-.08,1.35,0,2a8.09,8.09,0,0,0,.16-1.9c0-1.17-.05-2.35-.09-3.52,0-.34-.09-.67-.1-1a17.09,17.09,0,0,0-.33-2.26,40.81,40.81,0,0,0-1.23-4.49c-.12-.41-.27-.81-.42-1.21A30,30,0,0,0,229.61,20.89Zm-2.76,36,0,0-1.46,1.49c-.05,0-.11.1-.15.15l-.32.32s-.07.1-.11.1-.16.1-.22.18a1.1,1.1,0,0,1-.21.22c-.12.08-.25.13-.37.21-.31.21-.61.44-.91.66l-.23.16-1.17.85h0l0-.08a.83.83,0,0,0-.59.48.78.78,0,0,1-.33.36l-.09.08,0,0A21.28,21.28,0,0,0,226.85,56.91Zm-6.63-42.4,0,0,0-.06c-.13-.14-.27-.28-.4-.43a1.81,1.81,0,0,0-.28-.33c-.67-.5-1.35-1-2-1.46-.42-.29-.86-.54-1.28-.8l-.36-.24-.54-.34,0,0a2.43,2.43,0,0,0,.26.29c.23.16.48.31.73.47a8.5,8.5,0,0,1,.75.47c.65.48,1.35.9,2,1.44.33.29.68.55,1,.83ZM231,20.76l.05,0c-.11-.24-.21-.49-.34-.72a23.16,23.16,0,0,0-1.3-2.28c-.36-.51-.71-1-1.06-1.54a.49.49,0,0,0-.27-.22.51.51,0,0,0,.07.17l.45.64c.26.36.51.73.76,1.1a6.41,6.41,0,0,0,.38.62,6.63,6.63,0,0,1,.66,1.23ZM198.81,10v0l1.44-.11,1.47-.06h1.43v0a5.1,5.1,0,0,0-.76-.15c-.55,0-1.1,0-1.65.08s-.88.1-1.31.15Zm-3.68,57,0,.06.12.07c.25.07.49.15.74.2s.79.17,1.19.27a3.86,3.86,0,0,0,1.35.22.57.57,0,0,1,.22,0h.14a.22.22,0,0,0-.13-.06l-2.8-.65a.35.35,0,0,1-.13,0A1.24,1.24,0,0,0,195.13,66.93ZM180.84,16.41l0,0,.15-.15c.35-.36.68-.73,1-1.08.67-.63,1.36-1.24,2-1.87.06,0,.11-.12.17-.18l-.05-.05a3.71,3.71,0,0,0-.32.23c-.42.39-.87.74-1.26,1.17s-1,1-1.5,1.51C181.05,16.15,181,16.28,180.84,16.41Zm15.3,50.47.76-.09,0-.07-.18-.06c.56-.14,1,.18,1.55.12a.52.52,0,0,0-.16-.06,5.62,5.62,0,0,1-1.28-.34,1.38,1.38,0,0,0-.4-.1l0,.07.22.17-.51-.09.12.11-.15,0,.14.1-.26,0ZM191.78,3.1l3.47-.94A14.67,14.67,0,0,0,191.78,3.1ZM194.73,63v.06c-.06,0-.15,0-.17,0-.19-.18-.43-.14-.64-.19,0,0-.07,0-.1,0v0l2.13.61,0-.06c-.19-.07-.38-.15-.58-.21a1.53,1.53,0,0,1-.58-.27L195,63c-.32-.17-.39-.19-.53-.12ZM173.52,17.52l0,0L174,17c.18-.29.35-.59.54-.88s.47-.63.7-1l.47-.71,0,0A23.53,23.53,0,0,0,173.52,17.52ZM224.83,15l-.06,0,.45.56,1.32,1.51a2,2,0,0,1,.18.23l.17.23.05,0A26.93,26.93,0,0,0,224.83,15ZM191.64,61.47l0,.05a.5.5,0,0,0,.31.24l.41.14.59.19.25.1.48.14v0ZM184,13.59a8.4,8.4,0,0,0-1.56,1.54A8.68,8.68,0,0,0,184,13.59Zm49.39,17.59a.51.51,0,0,0,.12-.56,1.76,1.76,0,0,1-.29-.8.73.73,0,0,0-.07-.24l-.05,0ZM191,11.55a1,1,0,0,0-.61.18c-.28.17-.57.33-.86.49l-.48.31,0,0Zm17-1.3A5.66,5.66,0,0,0,206,9.84Zm-25.38,5.14.05,0,1.45-1.32,0,0A15.13,15.13,0,0,0,182.64,15.39Zm46.2,4.22,0,0a17,17,0,0,0-1-1.67l-.06,0ZM224,15a2.78,2.78,0,0,0,.55.68c.2.22.39.46.58.68h.05c0-.05,0-.13,0-.16C224.75,15.82,224.36,15.43,224,15Zm-1.82-5.8,1,.76h0s0-.1,0-.12a2.23,2.23,0,0,0-.24-.19,1.6,1.6,0,0,1-.25-.18l-.37-.36Zm3.09,3.94-.05.05a2.24,2.24,0,0,0,.44.52c.16.11.28.25.43.37l.09.08a.11.11,0,0,0,0-.09c-.23-.27-.45-.54-.68-.8A.69.69,0,0,0,225.24,13.17ZM178.52,28a4.39,4.39,0,0,0-.4,1.73Zm12.71-15.93a5.73,5.73,0,0,0-1.26.59A3.24,3.24,0,0,0,191.23,12.09Zm1.28-9.72,0-.07a1,1,0,0,0-.54.12l-.54.19a2.1,2.1,0,0,0-.26.13v0ZM183.2,13.7a3.27,3.27,0,0,0,1-.85A5.81,5.81,0,0,0,183.2,13.7ZM201.88,11a2.89,2.89,0,0,0,1.34,0Zm-22.67,15a3.78,3.78,0,0,0-.56,1.54Zm1-5.84a2.28,2.28,0,0,0-.65,1Zm13.15-18v0l.81-.17c-.14,0-.07-.11-.12-.17ZM182.84,66v0l.7.45a1.55,1.55,0,0,0-.19-.23c-.09-.15-.19-.27-.39-.21C182.92,66.05,182.87,66,182.84,66ZM177,12.37l.05.05.8-.85,0,0Zm9.81,3.92,0,0a1.46,1.46,0,0,0,.71-.7Zm-13.46,1.56-.06,0-.42.73.06,0A2.17,2.17,0,0,0,173.36,17.85Zm5.93,10.79.24-.77-.06,0A1.29,1.29,0,0,0,179.29,28.64ZM195.11,1.85l1-.2A1.6,1.6,0,0,0,195.11,1.85ZM181.56,21.91l-.05,0-.52.86,0,0Zm50.93,18.65h.06l.12-.9h-.07ZM177,12.84l-.05-.05-.56.67,0,0Zm40.29.14,0,.06a1.54,1.54,0,0,0,.52.35l0-.06Zm9,4.52.06-.05-.51-.64-.05,0Zm-49.7,9.67c.22-.21.28-.39.16-.6ZM202.4,9.59v0a1,1,0,0,0-.61,0Zm14.14,2.86c.15.25.43.31.64.48l0,0Zm-37,12.71-.06,0-.25.62.06,0Zm43.63-10.65c.12.11.19.28.4.33A.48.48,0,0,0,223.21,14.51ZM195,1.71l0-.05-.66.15,0,.07Zm38.49,26.77-.05,0,.1.62h.07ZM197.62,68.73c-.19-.18-.25-.18-.39,0ZM195.2,66a.51.51,0,0,0,.48.07C195.43,66,195.4,66,195.2,66Zm36.94-44.15a.93.93,0,0,0-.28-.65ZM194.19,63.39v.06l.61.23,0-.06Zm-3.35,4.24v.05a2.74,2.74,0,0,0,.54.21l0-.06Zm36.82-49.91.05,0-.34-.47-.06,0Z"/><path class="cls-1" d="M235.83,37.8c-.09.65-.17,1.29-.25,1.93,0,.23,0,.47-.05.7s0,.46,0,.7l.07,0h0a1,1,0,0,0,.1-.58.35.35,0,0,1,0-.2.5.5,0,0,0,0-.38s0-.06,0-.08c.14-.2.07-.44.12-.66a2.11,2.11,0,0,0,0-.71,1.93,1.93,0,0,1,0-.41l0-.37c0-.36.05-.73.07-1.09a4.73,4.73,0,0,0,0-.53c0-.66-.05-1.33-.07-2,0-.07,0-.14,0-.22a.12.12,0,0,0,0-.1,2,2,0,0,1-.07-.85.3.3,0,0,1,0-.1l.09-.3-.05,0-.08.11-.1-.79h0l.09.23h0v-.2c-.07-.57-.14-1.14-.22-1.7,0-.34-.15-.66-.18-1a13.42,13.42,0,0,0-.43-2.15c-.13-.5-.29-1-.43-1.49a21.67,21.67,0,0,0-1-3c-.36-.85-.73-1.69-1.09-2.53V20l.47.76a.92.92,0,0,1,.09.23,6.3,6.3,0,0,0,.4,1.1c.18.39.32.79.48,1.19a.76.76,0,0,0,.11.22s.07,0,.14.05l.14.53a.78.78,0,0,0,.08.23c.07.08,0,.14,0,.21a2.35,2.35,0,0,0,.25.76,1.3,1.3,0,0,1,.23.51,1.52,1.52,0,0,1,.15.6,5,5,0,0,0,.23,1.1c.08.6.24,1.19.36,1.78.06.25.12.49.17.73a2.87,2.87,0,0,1,.05.31c0,.48.11,1,.15,1.44,0,.32,0,.65,0,1l.09,1.47c0,.22,0,.44,0,.66s0,.4,0,.6V36c0,.22,0,.45,0,.68a5.68,5.68,0,0,1-.1,1.23,5.91,5.91,0,0,0,0,.85c0,.26,0,.52,0,.78a.17.17,0,0,1,0,.08c-.2.2-.14.45-.15.69a9.51,9.51,0,0,1-.26,1.67c-.06.26-.1.53-.16.79l-.3,1.31a1.66,1.66,0,0,0,0,.22,2.29,2.29,0,0,1-.08.28c0,.07-.08.14-.08.21a7.23,7.23,0,0,1-.41,1.6c-.26.8-.52,1.59-.81,2.37a12,12,0,0,1-.54,1.28c-.17.38-.36.74-.55,1.11-.05.11-.09.22-.14.32s-.23.47-.34.7l-.06,0,.51-1.14c.28-.64.56-1.28.83-1.92a2.22,2.22,0,0,0,.12-.46c-.15.24-.38.43-.43.73a.85.85,0,0,1-.12.28l-.07.15c-.06.14-.12.29-.19.43-.15.32-.3.64-.46,1s-.32.63-.48.94-.19.4-.29.6a.61.61,0,0,1-.19.24.76.76,0,0,1,.06-.16l.6-1.32c.15-.34.28-.69.44-1s.43-.9.63-1.35c.1-.25.16-.53.24-.79s.23-.65.34-1a3.24,3.24,0,0,0,.13-.33c.25-.95.51-1.9.76-2.86.16-.61.33-1.22.47-1.84s.16-1,.29-1.46a21.63,21.63,0,0,0,.33-2.4l.09-.62Zm-.7,5.87-.06,0-.35.86v.06c0,.18-.06.36-.11.54a1.41,1.41,0,0,0-.13.7.35.35,0,0,1,0,.13,1,1,0,0,0-.12.19,9.55,9.55,0,0,1-.34,1,3.7,3.7,0,0,0-.28,1.18,2.88,2.88,0,0,0,.24-.46c.17-.47.33-1,.49-1.43,0,0,0-.07,0-.11.12-.46.23-.93.36-1.38a5.57,5.57,0,0,0,.3-1.33,7.08,7.08,0,0,0,.39-2.18c0,.06-.06.07-.06.09-.11.62-.23,1.23-.33,1.85A.65.65,0,0,0,235.13,43.67Z"/><path class="cls-1" d="M233,23.69c.1.24.2.48.29.72A30.42,30.42,0,0,1,234.58,29c.17.86.29,1.73.45,2.6l-.09-1.33a1.06,1.06,0,0,1,.16.6c.08.84.14,1.68.21,2.52l.15,2a.41.41,0,0,1,0,.11,7.8,7.8,0,0,0,0,1.28,16.13,16.13,0,0,1-.16,2.19,9.55,9.55,0,0,0-.15,1.31,16.82,16.82,0,0,1-.44,2.74c-.25,1.11-.53,2.22-.84,3.32a17.27,17.27,0,0,1-.63,1.64c-.18.47-.35.94-.56,1.4s-.53,1.11-.81,1.66a.35.35,0,0,1-.12.15c.07-.22.07-.46.27-.63a.52.52,0,0,0,.06-.13c.11-.3.23-.59.33-.89.36-1,.73-2,1.06-3,.18-.54.3-1.09.45-1.63.08-.3.18-.58.24-.88.13-.54.27-1.08.36-1.64.18-1.15.34-2.32.5-3.48a25.43,25.43,0,0,0,.27-3.6c0-.67,0-1.35-.07-2a.16.16,0,0,0,0-.1l0,.28h0a5.39,5.39,0,0,1-.08-.56,34.19,34.19,0,0,0-.46-3.5c-.09-.44-.14-.9-.24-1.34a32.18,32.18,0,0,0-1.17-3.93,2.84,2.84,0,0,1-.09-.42Z"/><path class="cls-1" d="M229.59,16.29a7.57,7.57,0,0,1,1.21,1.78l-.23-.16,0,0,.06.14c.23.4.45.81.69,1.21.15.24.34.47.49.71s.25.44.37.67a1.08,1.08,0,0,1,.15.47.42.42,0,0,0,.15.3c.17.14.19.35.27.53.21.47.39,1,.59,1.43s.27.67.39,1,.19.68.33,1c.06.12.19.23.23.37s.13.46.2.7.06.21.1.31.1.3.14.45.08.46.13.69c.12.61.25,1.22.36,1.83.06.34.1.68.15,1h-.06s0-.09,0-.14c-.1-.61-.2-1.22-.31-1.84a.3.3,0,0,0-.1-.18.76.76,0,0,1-.12-.32,1.33,1.33,0,0,0,0-.19.44.44,0,0,0,0,.39,2.9,2.9,0,0,1,.15,1.06c0-.27-.1-.55-.16-.82,0,0,0,0,0-.08a36.67,36.67,0,0,0-1.28-4.5c-.25-.64-.51-1.26-.76-1.9a19.77,19.77,0,0,0-1.25-2.63c-.33-.59-.68-1.18-1-1.77-.15-.26-.34-.5-.47-.77A6.83,6.83,0,0,1,229.59,16.29Zm4.78,10.79c-.07.26.22.37.24.58h0l-.13-.57Z"/><path class="cls-1" d="M235.74,37.35a5.45,5.45,0,0,1,0-.7,3.06,3.06,0,0,0,0-.8c0-.34,0-.68,0-1,0-.65,0-1.3,0-1.95a11.89,11.89,0,0,0-.14-1.58c-.2-1.1-.33-2.22-.57-3.31-.05-.24-.09-.49-.13-.73a.06.06,0,0,0,0,0,11.5,11.5,0,0,0-.41-1.45c-.49-1.18-.83-2.42-1.34-3.59-.16-.38-.3-.78-.45-1.17,0,0,0-.06,0-.07-.26-.17-.12-.52-.34-.7l.06,0a1.18,1.18,0,0,1,.11.19c.15.3.29.61.43.92s.37.68.52,1c.23.55.43,1.11.65,1.66a1.29,1.29,0,0,0,.23.49c.06.05,0,.18.06.28s0,.33.09.49c.15.54.26,1.1.45,1.63s.18,1.12.4,1.65a2.4,2.4,0,0,1,.11.23.59.59,0,0,1,0,.19c0,.07,0,.15,0,.21a4.24,4.24,0,0,1,.19,1.12c.08.78.16,1.55.22,2.33,0,.42.05.84.07,1.27s0,.91,0,1.36c0,.62,0,1.23-.07,1.84a1.87,1.87,0,0,1,0,.25Z"/><path class="cls-1" d="M191.46,69.58l-.49-.14v0l.59.25a4.08,4.08,0,0,1-1.52-.4c0,.14.24.11.17.26l.32.19a2.32,2.32,0,0,1-.93-.41l.17,0,0,0a5,5,0,0,0-.48-.32c-.19-.1-.4-.18-.6-.27l-.17-.08c-.46-.2-.95-.38-1.39-.62a2.72,2.72,0,0,1-1-.71l.41.21.54.31a.94.94,0,0,0,.15.06l.44.12.29.07c.06,0,.15,0,.17.07s.29.2.45.27a6.14,6.14,0,0,0,.59.25c.33.12.66.22,1,.33l1.3.49S191.44,69.53,191.46,69.58Z"/><path class="cls-1" d="M196.65,69.19c.24,0,.49,0,.73.09l1.81.34h.2c-.06-.14-.19-.14-.29-.18s-.21-.06-.34-.1c.17-.08.3,0,.43,0l.4.11.42.08a4.34,4.34,0,0,1,.43.1l-.15.1.56.12,0,.12.17,0v0c-.1,0-.2,0-.3,0a7.8,7.8,0,0,1-1.92-.27,4.54,4.54,0,0,0-.5-.12,1.31,1.31,0,0,1-.51-.15c-.14-.07-.3-.09-.45-.16l2.56.47,0-.06-.76-.16-2.4-.48Z"/><path class="cls-1" d="M228.51,57.73l-1,1.22c0-.08,0-.13,0-.16l.28-.36.58-.65.86-1.06.15-.22.28-.38c.15-.23.31-.45.47-.67s.32-.39.45-.59c.24-.38.45-.76.67-1.14.11-.18.2-.36.3-.54a.22.22,0,0,1,.09-.1,13.6,13.6,0,0,1-.88,1.69h.15l-.27.36-.07-.13a1.6,1.6,0,0,0-.3.52.34.34,0,0,1-.07.11.38.38,0,0,0-.11.16l.14-.07a14.22,14.22,0,0,1-1.83,2.3l.17-.28Zm.32-.38,0,0,.38-.48,0,0Z"/><path class="cls-1" d="M184.34,5.92a5.24,5.24,0,0,1-.61.44c-.32.2-.62.43-.93.64l-.65.44-2,1.56-.47.4a.12.12,0,0,1-.1,0l.13-.15c.15-.15.35-.25.44-.46,0,0,.09-.06.14-.08s.29-.09.3-.28c0,0,.07-.08.12-.11.58-.41,1.16-.83,1.75-1.23L184.12,6a1.63,1.63,0,0,1,.19-.09Z"/><path class="cls-1" d="M170.92,50.85a.22.22,0,0,1,0-.08c-.26-.54-.53-1.07-.77-1.61a13.23,13.23,0,0,1-.56-1.35,3.88,3.88,0,0,1-.32-1.2L171,50.83Z"/><path class="cls-1" d="M225.61,11.85a21.81,21.81,0,0,1,3.66,4.35c-.06-.08-.13-.15-.19-.24a30.19,30.19,0,0,0-2.44-3Z"/><path class="cls-1" d="M197.33,68l3.63.84v.07a1.76,1.76,0,0,1-.23,0l-.63-.13-2.51-.59-.28-.11Z"/><path class="cls-1" d="M235,45.74a23.28,23.28,0,0,1-1.82,4.83c.21-.52.43-1,.64-1.58s.42-1.07.62-1.62S234.69,46.26,235,45.74Z"/><path class="cls-1" d="M219.59,64.57c.22-.11.44-.21.66-.33.38-.2.75-.41,1.12-.62l.52-.29.89-.56a.31.31,0,0,1,.17-.05l-.07.07c-.39.25-.74.54-1.16.76l-1.76.91a1.56,1.56,0,0,1-.37.1Z"/><path class="cls-1" d="M200.52,71.2l-.88-.09-.49,0-.37-.08a4.18,4.18,0,0,1-.61-.15l1,.09a4,4,0,0,0,.49,0,2.85,2.85,0,0,1,.87.16Z"/><path class="cls-1" d="M185.3,4.3a.71.71,0,0,1,.46-.27c.05,0,.1-.05.15-.08l.42-.3a1.41,1.41,0,0,1,.6-.26c.12,0,.24-.08.37-.11A18.8,18.8,0,0,1,185.3,4.3Z"/><path class="cls-1" d="M222.41,8.29a1,1,0,0,1,.26.12c.36.29.72.58,1.07.88l.71.62a0,0,0,0,1,0,.05l-.64-.52-1-.79c-.14-.11-.28-.24-.42-.36Z"/><path class="cls-1" d="M176.45,12.52s-.06.1-.1.14a3.88,3.88,0,0,0-.55.73c-.12.19-.32.32-.41.54,0,0-.1.06-.16.08a6.21,6.21,0,0,1,1.18-1.52Z"/><path class="cls-1" d="M225.89,60.41c-.08.09-.15.18-.23.26s-.4.32-.59.49a2.85,2.85,0,0,1-.23.26,5.4,5.4,0,0,1-.46.33l0,0a3.92,3.92,0,0,1,.34-.37c.34-.28.7-.56,1.05-.83a.83.83,0,0,1,.16-.09Z"/><path class="cls-1" d="M197.54,70.38l2.05.44a3.63,3.63,0,0,1-.58,0c-.2,0-.41-.11-.61-.16l-.6-.15-.27-.08Z"/><path class="cls-1" d="M199.35,71.65a17.54,17.54,0,0,1-2.28-.4l0-.07Z"/><path class="cls-1" d="M230,15.63a1.39,1.39,0,0,1-.21-.21c-.35-.46-.68-.92-1-1.38a.21.21,0,0,1,0-.14l.08,0c.39.56.79,1.12,1.18,1.69Z"/><path class="cls-1" d="M167.77,36.09l.15,2.06h-.07c-.11-.68,0-1.38-.13-2.06Z"/><path class="cls-1" d="M227.76,12.83l-1.24-1.34,0,0a14.37,14.37,0,0,1,1.24,1.35Z"/><path class="cls-1" d="M236.62,41.1l.3-2A7,7,0,0,1,236.62,41.1Z"/><path class="cls-1" d="M230,15.64a5.91,5.91,0,0,1,.91,1.31l0,.09,0,0L230,15.63Z"/><path class="cls-1" d="M168.19,32.31a5.1,5.1,0,0,1,.2-1.8Z"/><path class="cls-1" d="M187,3.8c.4-.13.7-.46,1.13-.52l0,.05L187,3.87Z"/><path class="cls-1" d="M225.9,60.42c.16-.18.32-.36.49-.52a4.63,4.63,0,0,0,.7-.7.21.21,0,0,1,.16-.08l-.08.1L226,60.36l-.11,0Z"/><path class="cls-1" d="M207.09,66.38a6.18,6.18,0,0,1-1.87.07Z"/><path class="cls-1" d="M197.5.31a2.64,2.64,0,0,1-1.08.17A2.12,2.12,0,0,1,197.5.31Z"/><path class="cls-1" d="M235.13,33.73c0,.19.05.37.05.54,0,.48,0,.95,0,1.42A14.61,14.61,0,0,1,235.13,33.73Z"/><path class="cls-1" d="M210.61,2.28a9.49,9.49,0,0,1,1.39.37A4.76,4.76,0,0,1,210.61,2.28Z"/><path class="cls-1" d="M225.38,10.24l.86.85a2.83,2.83,0,0,1-.91-.81Z"/><path class="cls-1" d="M183.49,5.63c-.14.11-.26.24-.4.34s-.4.23-.6.35l0-.05a.74.74,0,0,1,.13-.12c.27-.18.54-.36.82-.53,0,0,.05,0,.07,0Z"/><path class="cls-1" d="M235.43,46.38l.42-1.55a2.77,2.77,0,0,1-.19,1c-.06.19-.15.37-.23.56Z"/><path class="cls-1" d="M168.05,31.32a2.52,2.52,0,0,1-.07.56,1.24,1.24,0,0,0-.09.6,3.06,3.06,0,0,1,.08-1.17Z"/><path class="cls-1" d="M185.64,67.68l.44.25.62.33a.49.49,0,0,1,.17.15,4.76,4.76,0,0,1-1.23-.73Z"/><path class="cls-1" d="M167.73,28.24a1.13,1.13,0,0,1,.21-.82A2.36,2.36,0,0,1,167.73,28.24Z"/><path class="cls-1" d="M173.24,16.79a5.32,5.32,0,0,1,.63-1l0,0-.64,1Z"/><path class="cls-1" d="M172.39,18.1a6.13,6.13,0,0,1,.66-1l0,0-.65,1Z"/><path class="cls-1" d="M210,66.07l-1.18.2v0A7.86,7.86,0,0,1,210,66Z"/><path class="cls-1" d="M236.23,43.09l.24-1.11h.05a8.09,8.09,0,0,1-.23,1.11Z"/><path class="cls-1" d="M221.48,7.21l-.85-.56,0-.05a4,4,0,0,1,.84.57Z"/><path class="cls-1" d="M194.29.92c.19-.07.37-.15.56-.2a1.91,1.91,0,0,1,.48,0,3.76,3.76,0,0,1-1,.25Z"/><path class="cls-1" d="M218.48,65.11l-1.2.48,0,0,1.2-.48Z"/><path class="cls-1" d="M167.91,27.18l.24-.92.07,0-.25.92Z"/><path class="cls-1" d="M225,10l-.8-.73,0,0,.82.73Z"/><path class="cls-1" d="M194.29.92a1.83,1.83,0,0,1-.77.16,1.16,1.16,0,0,1,.77-.16Z"/><path class="cls-1" d="M172.39,16.48l-.56,1-.05,0,.56-1Z"/><path class="cls-1" d="M203,.89h1.13v0H203Z"/><path class="cls-1" d="M217.42,64.06s0,0,0,0c-.31.12-.63.23-.95.32a3.92,3.92,0,0,1,1-.36Z"/><path class="cls-1" d="M184.34,4.71l.47-.25c-.09.27-.22.34-.46.29Z"/><path class="cls-1" d="M223.21,62.51l.71-.5a1.87,1.87,0,0,1-.67.55Z"/><path class="cls-1" d="M171.63,52.2l.42.78L172,53c-.2-.23-.23-.55-.43-.78Z"/><path class="cls-1" d="M168.09,35.29a1.08,1.08,0,0,1,0-.81Z"/><path class="cls-1" d="M219.59,64.56a1.93,1.93,0,0,1-.75.36,2.14,2.14,0,0,1,.75-.35Z"/><path class="cls-1" d="M172,53.9a1.9,1.9,0,0,1-.4-.77l0,0,.36.8Z"/><path class="cls-1" d="M217.42,64.06l.94-.4,0,0s-.09.06-.13.07l-.83.29Z"/><path class="cls-1" d="M178.93,9.79l.52-.45,0,0C179.31,9.53,179.22,9.76,178.93,9.79Z"/><path class="cls-1" d="M226.34,11.73l-.68-.74,0,0,.7.72Z"/><path class="cls-1" d="M228.13,13.76l-.5-.58.05,0a3.86,3.86,0,0,1,.49.58Z"/><path class="cls-1" d="M206.17,66.29h-.83l.83-.06Z"/><path class="cls-1" d="M207.45,67.35l-1,.07v0l1-.09Z"/><path class="cls-1" d="M231.45,19.11l.26.5,0,0C231.58,19.49,231.33,19.42,231.45,19.11Z"/><path class="cls-1" d="M214.48,3.48l.75.29c-.3,0-.51-.16-.77-.24Z"/><path class="cls-1" d="M217.65,64.8a.71.71,0,0,1,.5-.19A.88.88,0,0,1,217.65,64.8Z"/><path class="cls-1" d="M233.18,19.63l-.31-.62.06,0a2.43,2.43,0,0,1,.3.63Z"/><path class="cls-1" d="M215.33,4.62a2.56,2.56,0,0,1,.27,0l.52.2,0,.07-.77-.32Z"/><path class="cls-1" d="M168.49,29.52l.12-.8h.07l-.15.81Z"/><path class="cls-1" d="M171.21,18.57l-.29.67,0,0,.31-.66Z"/><path class="cls-1" d="M169.25,26l-.22.81A1.35,1.35,0,0,1,169.25,26Z"/><path class="cls-1" d="M218.13,5.18a1.88,1.88,0,0,1-.55-.27l0,0,.54.26Z"/><path class="cls-1" d="M175,58.59l.43.53,0,0-.44-.54Z"/><path class="cls-1" d="M182,6.79l-.54.43A.9.9,0,0,1,182,6.79Z"/><path class="cls-1" d="M198.13,64.85l.58.16,0,.07-.58-.17Z"/><path class="cls-1" d="M168.13,35.68v.9a4,4,0,0,1-.06-.9Z"/><path class="cls-1" d="M170.6,50.6l.18.39A.27.27,0,0,1,170.6,50.6Z"/><path class="cls-1" d="M167.4,30.59l-.13.52-.07,0,.12-.51Z"/><path class="cls-1" d="M196.63,70.53l.59.12C197,70.72,196.93,70.7,196.63,70.53Z"/><path class="cls-1" d="M212.17,3.08l-.68-.18,0,0,.67.19Z"/><path class="cls-1" d="M183.49,5.63v0l.42-.12a.41.41,0,0,1-.37.21S183.5,5.65,183.49,5.63Z"/><path class="cls-1" d="M232.05,52.36l-.24.49-.05,0,.25-.48Z"/><path class="cls-1" d="M230.63,54.19l-.37.59,0,0,.35-.59Z"/><path class="cls-1" d="M179.09,9.92l-.36.4,0,0A1.09,1.09,0,0,1,179.09,9.92Z"/><path class="cls-1" d="M219.52,6c.22,0,.34.13.46.27Z"/><path class="cls-1" d="M175.7,59.53c.21.07.22.22.27.4A.62.62,0,0,1,175.7,59.53Z"/><path class="cls-1" d="M168.81,27.21l-.13.41a.38.38,0,0,1,.08-.43Z"/><path class="cls-1" d="M204.14,0l.45.06V.13l-.45-.07Z"/><path class="cls-1" d="M202.09,66.39l.76,0v0l-.76,0Z"/><path class="cls-1" d="M191.81,70l-.52-.17,0-.06.51.19Z"/><path class="cls-1" d="M235.43,46.38a1.11,1.11,0,0,1-.13.59,1.49,1.49,0,0,1,.13-.59Z"/><path class="cls-1" d="M222.41,8.29A.62.62,0,0,1,222,8a.67.67,0,0,1,.41.3Z"/><path class="cls-1" d="M231.45,28.73a1.19,1.19,0,0,0,0,.87l0,.11a3.62,3.62,0,0,1,.32,1.59,11.44,11.44,0,0,0-.26-1.16l-.07,0c0,.13,0,.26.06.39a12.34,12.34,0,0,1,.3,2,.11.11,0,0,1,0,.08,1.91,1.91,0,0,0,0,.92,1.59,1.59,0,0,1-.09.81.38.38,0,0,1,0-.1c0-.42-.1-.84-.13-1.26-.06-.93-.21-1.85-.35-2.77a18.24,18.24,0,0,0-.37-1.93.39.39,0,0,0-.06-.18.26.26,0,0,1-.07-.28.13.13,0,0,0,0-.1.46.46,0,0,1-.1-.29,1.14,1.14,0,0,0-.13-.38l-.45-1.28c-.23-.62-.43-1.25-.69-1.85s-.56-1.14-.83-1.71c-.17-.34-.33-.69-.49-1,0,0,0,0,0,0,.08-.16,0-.3,0-.44a.29.29,0,0,0-.09-.23l-.33-.32,0,0,.14.27,0,0-.14-.21-.38-.64a1,1,0,0,1-.12-.35.9.9,0,0,0-.4-.58.64.64,0,0,1-.2-.2c-.26-.36-.51-.73-.78-1.12.06,0,.14,0,.16,0a3.17,3.17,0,0,1,.55.67c.12.23.31.4.46.65.08-.25-.12-.39-.12-.57.18.23.35.46.52.7a.42.42,0,0,1,.08.28.64.64,0,0,0,.08.46,1.52,1.52,0,0,0,.31.31c.16.12.21.36.42.46a0,0,0,0,1,0,0l.35.61-.24-.06s0,.09,0,.12c.17.34.33.68.51,1s.31.54.44.82c.22.46.42.93.63,1.41,0,.09.09.1.18.06l0-.19.22.3.23.6,0,.44c-.14-.25-.2-.52-.35-.76l-.05,0,1.25,3.86c0-.15.08-.05.13-.05Z"/><path class="cls-1" d="M216.1,10.28c.12.09.23.19.36.27l1.71,1c.08.05.14.11.25.19h-.12l-.93-.57-.26-.16c-.06,0-.12-.05-.17-.09a20.52,20.52,0,0,0-2.48-1.36.27.27,0,0,1-.12-.1h.26l.05,0c.25.15.5.31.76.45s.46.21.7.31Z"/><path class="cls-1" d="M188.7,11.6l.62-.33,0,.06a11.46,11.46,0,0,1-1.85,1l.16-.13c.24-.15.48-.28.71-.43l.21-.14Z"/><path class="cls-1" d="M220.05,14.73l-.59-.45s0-.06,0-.09l.21.16Z"/><path class="cls-1" d="M227.19,40.92,227,42.45h0c0-.09.07-.18.09-.27.11-.49.22-1,.31-1.48s.23-1.28.31-1.93.12-1.26.16-1.89c0-.46.06-.91.09-1.37v0a2.48,2.48,0,0,1,.11-.89.29.29,0,0,0,0-.16l-.18-2.31a1.3,1.3,0,0,1,0-.34.78.78,0,0,1,.05.14c.06.51.15,1,.17,1.52,0,.88,0,1.77,0,2.65,0,.45-.08.9-.09,1.35a19.87,19.87,0,0,1-.38,3.35c-.16.81-.34,1.61-.53,2.41a8.28,8.28,0,0,1-.24.81,2.12,2.12,0,0,0-.14.87.71.71,0,0,1-.06.28c-.36,1-.75,2-1.2,2.89s-.84,1.59-1.31,2.35a18.64,18.64,0,0,1-2.51,3.28c-.3.29-.6.57-.92.84l.05-.09c.05-.08.2-.12.13-.27s.07-.1.11-.14l.77-.78a.66.66,0,0,0,.15-.21.39.39,0,0,0-.11.06c-.22.21-.44.44-.68.64-.39.34-.8.67-1.2,1a7.42,7.42,0,0,1-.62.49c-.32.24-.64.46-1,.69l-.92.6-.24.12c-.16.08-.32.13-.47.22a13,13,0,0,1-2.4,1L214,58l-.06,0,.33-.14c.42-.15.84-.29,1.25-.45.24-.1.46-.26.7-.36a13.79,13.79,0,0,0,2.34-1.32,14.21,14.21,0,0,0,2-1.61,13.71,13.71,0,0,0,1-1c.08-.08.11-.22.19-.31.4-.44.73-.94,1.09-1.41.22-.29.45-.58.66-.88s.41-.67.62-1,.29-.44.42-.67a2.59,2.59,0,0,0,.37-.81,5,5,0,0,1,.25-.59l.06-.19-.05,0-.49,1-.1-.08s0,0,0,0c-.16.29-.33.58-.48.87,0,.08-.14.15,0,.25s0,.07,0,.1c-.22.35-.44.7-.67,1a.19.19,0,0,1-.08.07l0-.15a2,2,0,0,0-.38.64,1.29,1.29,0,0,1-.25.44c-.44.54-.87,1.08-1.34,1.58s-.76.73-1.15,1.08c-.17.16-.35.32-.53.46s-.18.1-.39.07a19,19,0,0,0,3-3.44l-.27.18h0l.05-.19,0,0-.94,1.14,0,0,.1-.17a.59.59,0,0,0,.18-.36c0-.09,0-.21.21-.15s.07,0,.09-.06a1,1,0,0,0,.17-.23,1.1,1.1,0,0,1,.32-.42.84.84,0,0,0,.2-.4l-.42.39,0,0a.94.94,0,0,1,.06-.15l.4-.65s0,0,0,0c.29-.16.24-.51.42-.72a2.83,2.83,0,0,0,.42-.76q.13-.28.3-.57a10.43,10.43,0,0,0,.57-1.33c.22-.57.46-1.14.68-1.71.09-.24.15-.49.22-.73s.07-.2.1-.29.13-.48.22-.71a13.76,13.76,0,0,1,.48-1.41,1.48,1.48,0,0,0,.13-.56c.06-.34.1-.69.14-1,.07-.59.12-1.18.2-1.77a2.93,2.93,0,0,1,.13-.57,7.87,7.87,0,0,1,0,1l.2-.15a5.09,5.09,0,0,1,0,.58c-.07.51-.17,1-.25,1.52a1.1,1.1,0,0,0,0,.54h.06c0-.06.05-.11.07-.17a31.51,31.51,0,0,0,.55-3.88,21.92,21.92,0,0,0,.07-2.69.18.18,0,0,1,0-.12v1.4c0,.27,0,.53,0,.8a23.51,23.51,0,0,1-.36,3.65c0,.19,0,.38-.07.57a1,1,0,0,1,0,.25,4.37,4.37,0,0,0-.15,1.25s0,0,0,.06c.05-.18.11-.36.16-.54.1-.38.17-.77.3-1.14a2.67,2.67,0,0,0,.1-.62c0-.29.1-.58.14-.87s.05-.55.07-.82.06-.62.1-.93a9.8,9.8,0,0,0,.12-1.88,3.55,3.55,0,0,1,.06-.55h0l0,.22.06-.19h.05l-.1,2.12h0l0-.21h.05l-.08.85h0v-.37L227.09,41l.1-.07Zm-4,8a2.26,2.26,0,0,0,.16-.26,2.9,2.9,0,0,0,.2-.33c0-.08,0-.08-.08-.16-.1.24-.19.47-.28.7,0,0,0,0,0,.06s-.12,0-.13,0-.12.26-.18.4l0,0,.13-.2A2.1,2.1,0,0,0,223.21,48.93ZM223.16,50l.07,0,.5-.81-.06,0Zm3.31-4.59,0,0a1.32,1.32,0,0,0,.16-.51l-.06,0Z"/><path class="cls-1" d="M186.4,19.17l-.53.55-.65.7,0,0a.53.53,0,0,1,.06-.19c.18-.23.36-.46.56-.67s.47-.47.7-.71a.4.4,0,0,0,.1-.17l-.47.38s-.08.09-.18.06-.17.07-.23.14l-1,1c-.2.23-.43.43-.63.66a1.21,1.21,0,0,0-.22.32c0,.05,0,.12,0,.18l.18,0-.12.18-.63.87c-.09.13-.16.27-.24.41s-.17.3-.26.44a2.42,2.42,0,0,0-.4.65c0,.05-.06.09-.11.16s0-.08,0-.1c.16-.29.31-.59.48-.88l.81-1.3a1.42,1.42,0,0,0,.13-.25,1.26,1.26,0,0,0-.5.53c-.17.3-.33.6-.51.9s-.29.46-.44.69a2.52,2.52,0,0,1,.36-.78c.18-.27.31-.57.49-.84s.47-.61.7-.92c.11-.15.19-.32.29-.48s.15-.24.23-.36.11-.17.16-.27c-.42.36-.67.88-1.2,1.2a1.36,1.36,0,0,1,.07-.18,2.33,2.33,0,0,1,.17-.26c.55-.66,1-1.37,1.62-2,.29-.32.6-.62.92-.91a8.27,8.27,0,0,1,.66-.51.32.32,0,0,0,.12-.08,1.58,1.58,0,0,1,.7-.37,1.34,1.34,0,0,0,.57-.37l0,0,.09,0-.21.22,0,0,.87-.58,0,0-.05.13.33-.15c-.35.36-.72.66-1.07,1s-.73.66-1.08,1l.44-.32c.06-.05.14-.08.21-.13a.71.71,0,0,0,.14-.1,3.75,3.75,0,0,1,1-.78,2.68,2.68,0,0,0,.48-.35,4,4,0,0,1,.86-.53l.46-.27a.6.6,0,0,1,.23-.06,20.72,20.72,0,0,0-3.27,2.41l.11,0,0,.15.31-.22a.13.13,0,0,1,.1,0c-.4.31-.63.81-1.14,1l0-.08-.27,0v-.05l-.28.27Zm-.76-.27A8.17,8.17,0,0,0,184.58,20,6.25,6.25,0,0,0,185.64,18.9Z"/><path class="cls-1" d="M229.66,34.45c0,.13,0,.26.05.4,0,.55,0,1.11,0,1.67a14.72,14.72,0,0,1-.07,1.49c-.07.71-.18,1.42-.28,2.14a25.51,25.51,0,0,1-.67,3.24c-.23.82-.51,1.64-.76,2.45-.1.3-.17.6-.29.89s-.4.83-.55,1.27a13.32,13.32,0,0,1-1.18,2.32c-.31.54-.67,1.06-1,1.59-.24.36-.47.73-.72,1.09-.09.14-.23.25-.34.39s-.32.43-.51.62-.65.63-1,1-.42.43-.64.63-.36.3-.54.46l-.45.39a3.11,3.11,0,0,1-.25.2c0-.23.06-.33.23-.38s.24-.06.25-.23,0-.07.08-.09a1.57,1.57,0,0,0,.61-.56,8.94,8.94,0,0,1,.85-.89c.28-.3.56-.63.82-1s.75-.94,1.11-1.42.66-.92,1-1.4a28.18,28.18,0,0,0,2.48-5.38c.19-.56.43-1.11.58-1.68s.31-1.41.46-2.12c.09-.38.19-.77.25-1.15.1-.64.17-1.28.25-1.91,0-.31.09-.62.12-.93,0-.14,0-.29,0-.43l0-.58a.88.88,0,0,0,0-.16c0-.44,0-.87,0-1.31,0-.2,0-.41,0-.61Z"/><path class="cls-1" d="M228.84,37.08l.07-.25h0a3,3,0,0,1-.08.86,4.76,4.76,0,0,0-.14.92c0,.25,0,.52-.06.78a4.25,4.25,0,0,1-.12.6c0,.11-.11.21,0,.33s0,.08,0,.12c-.09.45-.18.91-.26,1.36a.23.23,0,0,1-.06.13c-.12.05-.1.16-.09.25a2,2,0,0,1-.25,1.08,1.09,1.09,0,0,0-.08.31.48.48,0,0,1,0,.12l-.57,1.84a17.65,17.65,0,0,1-1.11,2.65c-.34.68-.73,1.33-1.11,2-.24.41-.48.82-.73,1.23a2.78,2.78,0,0,1-.26.34c-.44.54-.88,1.09-1.33,1.62a4.36,4.36,0,0,1-.43.43l0,0a1.48,1.48,0,0,0,.24-.26c.07-.1.25-.16.16-.34,0,0,0-.06,0-.08l.79-1,.22-.27A25.09,25.09,0,0,0,226.34,47c.25-.59.51-1.18.73-1.78s.4-1.21.56-1.82.2-.93.3-1.4c0-.22.13-.43.16-.66.14-.79.26-1.59.38-2.39.08-.48.17-1,.22-1.45s.06-.89.08-1.34,0-1,0-1.49a2.17,2.17,0,0,0,0-.36c0-.2,0-.41,0-.61s0-.54-.08-.81c-.06-.57-.09-1.15-.18-1.72a25.17,25.17,0,0,0-.81-3.64c-.05-.17-.08-.34-.12-.5l0,0c.07.21.14.42.2.63.11.37.21.74.31,1.1s.17.58.24.88c0,.13,0,.27.06.41.11.76.21,1.53.32,2.3a2.16,2.16,0,0,1,.07.51,1.64,1.64,0,0,0,.06.58l0-.12a5.19,5.19,0,0,1,.05,1.42l0-.18-.09,2.53Z"/><path class="cls-1" d="M216.86,59.53c.68-.32,1.36-.62,2-1A17.73,17.73,0,0,0,221,57.18a18.18,18.18,0,0,0,1.46-1.31l.4-.38c.11-.13.21-.27.32-.41a.72.72,0,0,1,.11-.15,12.14,12.14,0,0,0,1-1.21c.37-.45.7-.91,1-1.37.07-.1.12-.22.19-.32.3-.42.61-.82.89-1.25a12.92,12.92,0,0,0,1.23-2.29c.12-.33.29-.65.44-1a.15.15,0,0,1,.09-.08c0,.13-.07.26-.12.38-.25.6-.49,1.19-.75,1.78a6.58,6.58,0,0,1-.42.73,2.39,2.39,0,0,0-.38,1,5.88,5.88,0,0,0,.73-1.17c.23-.4.43-.82.66-1.27,0,.08,0,.13,0,.17s-.09.2-.14.3c-.18.37-.35.73-.54,1.09s-.38.69-.59,1c-.37.59-.74,1.17-1.13,1.74a12.12,12.12,0,0,1-.76,1,6.89,6.89,0,0,1-.52.56.4.4,0,0,1-.24.08l.43-.59,0,0-.1.1c-.19.19-.37.39-.57.58s-.21.27-.4.29l0,0a3.59,3.59,0,0,1-.93.85.48.48,0,0,0-.09.11,2.61,2.61,0,0,1-.77.67c-.29.23-.56.48-.86.71s-.4.26-.6.4a6.79,6.79,0,0,1-.74.43c-.52.28-1,.6-1.54.88a9.61,9.61,0,0,1-.91.45c-.2.08-.41.13-.61.19a.69.69,0,0,0-.13,0,3.56,3.56,0,0,1-1.12.43c-.38.1-.75.22-1.13.33a.16.16,0,0,1-.13,0c.26-.09.52-.2.78-.27a7.21,7.21,0,0,0,1.2-.45l.8-.33c.05,0,.08,0,.12-.07Zm8-5.92.07.06.42-.59,0,0Z"/><path class="cls-1" d="M221,51.17,221,51c.24-.33.5-.65.73-1s.42-.64.62-1a9.69,9.69,0,0,0,.56-.91,6.74,6.74,0,0,0,.53-1.2,6.61,6.61,0,0,1,.28-.74c.18-.45.38-.9.53-1.36.24-.71.41-1.44.66-2.14a19.08,19.08,0,0,0,.7-3.15q.18-1.14.33-2.28a4.93,4.93,0,0,0,0-.86l-.05.12h0v-1h0l-.1.17c0-1.35-.15-2.68-.28-4a.48.48,0,0,1,.17.36c.05.41.08.83.14,1.25,0,.18.09.35.12.52s0,.45.09.68a2.47,2.47,0,0,0,.06.29,1.77,1.77,0,0,1,0,.2c0,.2,0,.4,0,.61a.21.21,0,0,1-.07.17c-.05,0,0,.17,0,.27l0-.1a6,6,0,0,1,0,1.47.74.74,0,0,0,.09-.56,1.12,1.12,0,0,1,.1-.59.78.78,0,0,1,0,.14c-.08,1-.15,1.89-.25,2.83a6.07,6.07,0,0,1-.16.85c-.05.19-.13.36-.19.55s-.07.13,0,.2,0,.1,0,.15l-.24,1.11a11.88,11.88,0,0,1-.35,1.3c-.2.58-.43,1.16-.64,1.74-.15.39-.33.77-.5,1.15s-.24.59-.38.87-.32.6-.49.89a27.86,27.86,0,0,1-1.52,2.36l-.58.75Z"/><path class="cls-1" d="M195.89,13.33a.62.62,0,0,1,.45-.33c.46-.13.91-.28,1.36-.43a7.56,7.56,0,0,1,1.76-.37,20.17,20.17,0,0,1,2.06-.15c.85,0,1.71.11,2.56.17h.12a16.47,16.47,0,0,1,3,.42,2.54,2.54,0,0,1,.46.17A1.4,1.4,0,0,1,208,13l-.15,0a2.48,2.48,0,0,0-.9-.11.89.89,0,0,1-.28,0,4.06,4.06,0,0,0-1.15-.12,2.48,2.48,0,0,1-.27,0l-1.86-.13c-.15,0-.31-.07-.46-.09s-.45,0-.68,0c-.56,0-1.11.09-1.67.13s-1.35.21-2,.29c-.33,0-.67,0-1,.09a6.07,6.07,0,0,0-1.52.39Z"/><path class="cls-1" d="M224.58,43.08c-.1.32-.2.64-.31,1A22.12,22.12,0,0,1,223.12,47c-.1.19-.22.37-.32.56a3.72,3.72,0,0,0-.22.38,9.59,9.59,0,0,1-1.19,2c-.2.29-.42.56-.64.83s-.26.3-.39.44l-.05,0,.42-.49,0,0-.45.44,0,0c0-.05,0-.1.08-.14.47-.7.94-1.4,1.42-2.09a4.11,4.11,0,0,1,.56-.74,2.25,2.25,0,0,0,.48-.85,12.29,12.29,0,0,1,.7-1.57,7.92,7.92,0,0,0,.75-1.78,3.09,3.09,0,0,1,.33-.77Z"/><path class="cls-1" d="M222.41,18.88l1,1.3a4.15,4.15,0,0,1,.3.43c.21.32.4.66.6,1,0,0,0,.11.08.14s.2.27.28.42.2.38.3.56A20.92,20.92,0,0,1,226.53,26c.16.42.26.87.4,1.3a2.52,2.52,0,0,1,.15.34c.14.76.45,1.49.53,2.28,0,.21.09.43.12.65a3.64,3.64,0,0,1,.05.74s0-.05-.05-.09c-.16-.77-.34-1.55-.49-2.33a9.84,9.84,0,0,0-.68-2.18c-.16-.37-.29-.75-.45-1.11l-.69-1.62a1.11,1.11,0,0,1-.09-.19,7.86,7.86,0,0,0-.82-1.64,2.18,2.18,0,0,1-.28-.46,5.88,5.88,0,0,0-.81-1.16c-.26-.4-.54-.79-.81-1.18-.09-.13-.16-.27-.24-.4Z"/><path class="cls-1" d="M218.81,51.8c.19-.23.4-.45.59-.69.49-.61,1-1.23,1.45-1.86.18-.24.29-.53.45-.79s.34-.52.52-.79a2.9,2.9,0,0,0,.19-.29c.33-.69.68-1.38,1-2.09.21-.49.34-1,.51-1.53l.3-.82h.06a2.43,2.43,0,0,1,0,.27,7.14,7.14,0,0,1-.62,1.86l-.19.39c-.29.67-.58,1.34-.88,2a14.71,14.71,0,0,1-2.3,3.43c-.2.23-.44.41-.66.62-.06,0-.1.12-.15.17s-.14.11-.21.17Z"/><path class="cls-1" d="M213.39,11.82l.17,0a8.94,8.94,0,0,1,1.62.78c.42.25.86.47,1.28.72a4.73,4.73,0,0,1,.66.44c.83.67,1.66,1.36,2.49,2a7.11,7.11,0,0,1,1,.94c.31.37.66.69,1,1,.18.19.35.4.52.6a1.82,1.82,0,0,1,.15.23l0,0c-.11-.12-.24-.23-.34-.35a23.48,23.48,0,0,0-2.27-2.3c-.39-.35-.77-.69-1.18-1s-1-.74-1.5-1.08-1.05-.61-1.54-1a6.8,6.8,0,0,0-1.11-.64l-.71-.38-.17-.11Z"/><path class="cls-1" d="M221.92,20.61a1.22,1.22,0,0,1-.15-.17,12.12,12.12,0,0,0-1.49-1.78c-.54-.58-1.1-1.13-1.67-1.67a14.32,14.32,0,0,0-1.72-1.39c-.56-.37-1.08-.8-1.64-1.16s-1-.59-1.51-.87c-.32-.17-.67-.3-1-.48a13.58,13.58,0,0,0-2-.89c-.35-.14-.7-.24-1.06-.36a14.93,14.93,0,0,0-1.62-.45,4.65,4.65,0,0,1-1-.3l.29,0c.41.09.82.19,1.22.3.22.06.43.17.65.22a15.1,15.1,0,0,1,1.76.58c.55.2,1.09.44,1.62.68.3.13.57.31.86.46.5.28,1,.54,1.51.83s.7.46,1,.7.83.58,1.23.88.94.74,1.39,1.13c.29.26.54.56.83.83a22.74,22.74,0,0,1,1.77,1.91c.26.3.47.63.7.94Z"/><path class="cls-1" d="M221.64,24.17l-.68-1,0,0a1.85,1.85,0,0,0,.28.6,4.42,4.42,0,0,1,.37.55l0,0a.49.49,0,0,1-.16-.1c-.22-.32-.43-.63-.63-.95,0,0-.06-.11,0-.13s0-.24-.06-.33a8.09,8.09,0,0,0-.8-1,1.65,1.65,0,0,1-.28-.41c-.07-.12,0-.21.11-.21a.54.54,0,0,1,.29.07,4.93,4.93,0,0,1,1.33,1.77.61.61,0,0,1,0,.23.73.73,0,0,0,.06.21A1,1,0,0,1,221.64,24.17Z"/><path class="cls-1" d="M194.79,14.3l.08-.37-.52.17a1.58,1.58,0,0,1,1-.48l.74-.16s.13,0,.16,0,.24,0,.37,0l.48-.1.61-.14c.11,0,.22-.07.33,0s.09,0,.14,0l1-.21a.61.61,0,0,1-.29.19l-1.14.21c-.28.07-.56.16-.83.25l-.52.2-.82.28A2.42,2.42,0,0,1,194.79,14.3Z"/><path class="cls-1" d="M214.53,57.09a1,1,0,0,0-.47.15.75.75,0,0,1-.31.15,4.2,4.2,0,0,1-1,.26c-.14,0-.27.13-.42.18l-.47.16a.26.26,0,0,1-.12,0,.72.72,0,0,0-.57.12,2,2,0,0,1-.47.14l-1,.15-.45.05-.73.15-.32,0v0l.17,0c.78-.15,1.56-.28,2.33-.46a17.09,17.09,0,0,0,2-.55c1-.36,2.09-.74,3.11-1.17a12.74,12.74,0,0,0,1.49-.82c.36-.21.7-.44,1.07-.64a1.43,1.43,0,0,1-.23.2l-1.19.74c-.08,0-.14.13-.22.19a1,1,0,0,1-.16.12c-.37.16-.74.31-1.1.48s-.64.3-1,.46Z"/><path class="cls-1" d="M225.16,20.26a1.35,1.35,0,0,1,.12.12l.62,1a1.77,1.77,0,0,0,.12.17c.24.45.55.86.75,1.34.27.69.6,1.35.88,2a14.62,14.62,0,0,1,.78,2.22c.1.41.28.81.38,1.22s.26,1.13.38,1.7a.71.71,0,0,1,0,.29c-.09-.41-.17-.83-.27-1.24-.06-.24-.15-.47-.21-.7s-.11-.47-.18-.7-.13-.51-.22-.75-.21-.59-.32-.88-.22-.63-.34-.95a20,20,0,0,0-.82-1.83c-.06-.11-.1-.23-.16-.34s0-.18-.17-.18-.06-.08-.05-.09,0-.17,0-.25a3,3,0,0,1-.15-.31,2,2,0,0,0-.55-.79s-.05,0-.06-.07Z"/><path class="cls-1" d="M208.42,11.15c0-.16.13-.13.21-.11a21.75,21.75,0,0,1,3.83,1.42c.26.12.52.26.77.39l0,.05-.31-.14c-.12-.06-.23-.17-.39-.1s-.12,0-.18-.05c-.73-.27-1.46-.55-2.19-.81-.43-.16-.88-.3-1.31-.45C208.69,11.3,208.55,11.21,208.42,11.15Z"/><path class="cls-1" d="M180.3,36.1a1.09,1.09,0,0,1-.05-.17c0-.37,0-.75,0-1.12s0-.71,0-1.07.05-.57.07-.85a14.87,14.87,0,0,1,.23-1.76c.07-.33.12-.65.18-1s.07-.38.11-.57a1,1,0,0,1,.13-.28c0,.25-.07.5-.1.75-.07.5-.13,1-.19,1.5,0,.07,0,.14,0,.21a1.35,1.35,0,0,1-.08.4,2.16,2.16,0,0,0-.21.9,3.16,3.16,0,0,1-.05.68,7.5,7.5,0,0,0,0,1.34c0,.3,0,.6,0,.89,0,0,0,.08,0,.12Z"/><path class="cls-1" d="M229.47,43.67a2.58,2.58,0,0,1,0-.29c.12-.49.25-1,.35-1.47.07-.33.1-.66.16-1s.13-.63.17-.94a29.84,29.84,0,0,0,.29-3.13l0-.71,0-.15h.05a1.87,1.87,0,0,1,0,.25,19.56,19.56,0,0,1-.19,2.41c-.05.22,0,.46,0,.68l-.45,2.76c0,.17-.06.35-.11.53s-.12.28-.17.43a3.11,3.11,0,0,0-.07.44,1.21,1.21,0,0,0-.05.18Z"/><path class="cls-1" d="M183.13,18.37l0,.18c.66-.55,1.13-1.26,1.79-1.75l0,0c-.14.14-.3.27-.44.42s-.21.27-.31.4l-.09.11a4,4,0,0,0-.55.54c-.34.45-.75.84-1.1,1.29l-.64.81a1.9,1.9,0,0,1-.19.21l0,0a.69.69,0,0,1,.07-.15,4.72,4.72,0,0,0,.48-.69.16.16,0,0,1,.09-.09.22.22,0,0,0,.15-.2c0-.11.14-.2.21-.3s.13-.09,0-.17a.07.07,0,0,1,0-.07Z"/><path class="cls-1" d="M221.35,54.55l-.79.72c-.14.13-.27.26-.42.38a7.57,7.57,0,0,1-.63.49c-.41.29-.8.59-1.23.85a5.78,5.78,0,0,1-1,.46,32.4,32.4,0,0,0,4-2.94Z"/><path class="cls-1" d="M221.05,18.19a1.29,1.29,0,0,1,.17.16c.54.65,1.08,1.29,1.6,1.95a7.45,7.45,0,0,1,.68,1.07,5.56,5.56,0,0,0,.48.81.86.86,0,0,1,.11.28l-.05,0-.27-.41c-.19-.3-.37-.6-.56-.89-.31-.47-.63-1-1-1.41a3.75,3.75,0,0,0-.53-.71c-.25-.23-.44-.51-.67-.75a.41.41,0,0,1-.05-.09Z"/><path class="cls-1" d="M191.87,60.66l.58.23c.05,0,.11.07.14.06.31-.1.46.2.7.25s.43.15.65.21l.78.17h0l-.12,0a2.28,2.28,0,0,0,.74.22l.13,0c.09.05.08.12,0,.19h-.11c-.34-.11-.7-.19-1-.32-.69-.27-1.37-.55-2.05-.84a4.78,4.78,0,0,1-.45-.23Z"/><path class="cls-1" d="M224.48,17.36l.05.22c-1.09-1.24-2.22-2.45-3.42-3.59l0,0a1.59,1.59,0,0,1,.21.15l1,.9.18.11.26.28a4,4,0,0,0,.24.33c.16.19.34.37.51.56l.9,1a.24.24,0,0,0,.08.06Z"/><path class="cls-1" d="M198.41,63.66c.93.11,1.87.24,2.8.32s1.87.08,2.8.14A20.64,20.64,0,0,1,198.41,63.66Z"/><path class="cls-1" d="M194.19,62.07l1.3.43,0-.06-.57-.2v0a1.17,1.17,0,0,1,.27,0c.29.12.62.11.9.22s.79.19,1.16.37a.08.08,0,0,1,.05.07c-.12,0-.23-.09-.35-.12a1.75,1.75,0,0,0-.38-.09,2.94,2.94,0,0,0-.43,0l.19.17v0l-.2,0-1.94-.72s0,0,0,0Z"/><path class="cls-1" d="M226.05,28.51c.15,0,.16.18.19.3a6.63,6.63,0,0,0,.28,1.06,2.49,2.49,0,0,1,.13.67c.08.58.15,1.16.22,1.74,0,.32,0,.64.08,1h0c0-.21-.06-.42-.08-.63a23.46,23.46,0,0,0-.57-3.21c-.07-.3-.13-.59-.19-.89Z"/><path class="cls-1" d="M183.07,23.15a1.29,1.29,0,0,1,.36-.68,4,4,0,0,0,.43-.56,6,6,0,0,1,.78-1,.05.05,0,0,1,.05,0,.13.13,0,0,1,.12,0c-.2.25-.39.51-.58.76s-.25.31-.37.48l-.57.83c0,.07-.11.14-.16.22Z"/><path class="cls-1" d="M195.46,13.29c.07.09,0,.15-.05.19a6,6,0,0,1-1.06.35,2.53,2.53,0,0,0-.78.3c-.18.1-.18.1-.52,0a10,10,0,0,1,1.19-.49C194.63,13.51,195,13.42,195.46,13.29Z"/><path class="cls-1" d="M228.28,47.07c.12-.31.24-.62.37-.93,0-.06.06-.11.08-.17.17-.6.35-1.2.53-1.8a2.43,2.43,0,0,1,.16-.37l.06,0a.86.86,0,0,1,0,.16c-.12.4-.25.79-.38,1.18s-.17.51-.27.76-.31.79-.47,1.18Z"/><path class="cls-1" d="M191.92,14a10.29,10.29,0,0,1,2.25-1v.15c0,.12,0,.14-.14.16a2,2,0,0,0-.35.06l-1.28.49a2.36,2.36,0,0,0-.28.12l-.18,0Z"/><path class="cls-1" d="M225.9,26.25a1.4,1.4,0,0,1-.09-.17l-.62-1.43c-.08-.18-.19-.35-.27-.53-.2-.41-.39-.82-.58-1.24l0,0c.08.14.16.29.25.42a18.4,18.4,0,0,1,.9,1.84c.13.3.23.62.34.93a.76.76,0,0,1,0,.21Z"/><path class="cls-1" d="M225.86,22.66l-.21-.43,0,0a13.25,13.25,0,0,1,.86,1.62l0,0a1.34,1.34,0,0,1-.11-.14.47.47,0,0,0-.14-.14l.1.31h0l-1.19-2.25,0,0,.63,1.05Z"/><path class="cls-1" d="M228.16,23.6l-1.89-3.54h0l.1.1c.26.45.53.9.79,1.36s.38.65.54,1,.31.73.46,1.1Z"/><path class="cls-1" d="M195.48,61.87l-.13,0-.62-.25h.17c-.16-.24-.47-.06-.62-.31l.79.19h.09a2.93,2.93,0,0,0,.4.19c.17.06.35.09.52.16l-.17,0v.05l.41.18,0,.07L196,62Z"/><path class="cls-1" d="M224,23.92,222.21,21l0,0a3.15,3.15,0,0,1,.25.28c.3.46.6.92.88,1.39s.4.73.6,1.1l.06.13Z"/><path class="cls-1" d="M183.94,18.3a20,20,0,0,0-2.16,2.77l0,0c0-.06.07-.11.1-.16s.2-.23.19-.4c0,0,0,0,0-.07.24-.32.48-.64.73-1s.67-.76,1-1.13l.09-.08Z"/><path class="cls-1" d="M221.65,14.82a1.29,1.29,0,0,1-.16-.09c-.38-.35-.76-.71-1.15-1s-.63-.52-1-.77l-.26-.22,0,0c.21.15.42.29.62.45l1.55,1.31c.12.11.22.25.34.38Z"/><path class="cls-1" d="M224.32,31c0-.13,0-.26-.06-.38-.08-.33-.17-.65-.25-1a1.31,1.31,0,0,1,0-.2.3.3,0,0,1,.18.24c.12.5.24,1,.33,1.49a6,6,0,0,1,.06.73h0c0-.19-.06-.38-.1-.56s-.08-.23-.12-.35Z"/><path class="cls-1" d="M226,29.79a11.75,11.75,0,0,1,.42,2.77l-.09-.7a1.46,1.46,0,0,0-.18-.67,1.3,1.3,0,0,1-.09-.46c-.05-.31-.08-.63-.12-.94Z"/><path class="cls-1" d="M230.23,31.68l.11.15.06-.11a5.68,5.68,0,0,1,.11,1.93l-.06-1h0l-.06.11-.13-1.09Z"/><path class="cls-1" d="M229.34,31.26l.21.9a1,1,0,0,1,0,.39,5.36,5.36,0,0,0,.05,1.2,2.54,2.54,0,0,1,0,.39,1,1,0,0,1-.1-.48,13,13,0,0,0-.19-1.87l-.06-.53Z"/><path class="cls-1" d="M216.11,14,214,12.82l0-.05a1.29,1.29,0,0,1,.21.06A8.2,8.2,0,0,1,216.11,14Z"/><path class="cls-1" d="M181.75,40.42c.08.27.16.54.25.81s.21.55.32.83a2.37,2.37,0,0,1,.2.87,14,14,0,0,1-.82-2.5Z"/><path class="cls-1" d="M215.85,56.59a15.28,15.28,0,0,0,2.52-1.43l0,0-.32.24a1.1,1.1,0,0,0-.38.33.25.25,0,0,1-.28.13.58.58,0,0,0-.17.06l-1,.55a3.65,3.65,0,0,1-.35.14Z"/><path class="cls-1" d="M180.88,25.55a1.8,1.8,0,0,1-.08.21,2.35,2.35,0,0,0-.27.81,3.94,3.94,0,0,1-.18.48c-.07.2-.15.39-.22.58a1,1,0,0,1-.07.15,7.65,7.65,0,0,1,.75-2.25Z"/><path class="cls-1" d="M230.63,31.27a21.46,21.46,0,0,1,.29,3h-.07c0-.07,0-.14,0-.2-.05-.61-.09-1.23-.14-1.84,0-.32-.08-.64-.11-.95Z"/><path class="cls-1" d="M199.37,13.37a.51.51,0,0,1,.4-.18l.88,0,.39,0A3.58,3.58,0,0,1,199.37,13.37Z"/><path class="cls-1" d="M226.48,27.93a9.77,9.77,0,0,1,.64,2.76Z"/><path class="cls-1" d="M225.28,26.8c-.14-.3-.28-.59-.41-.88-.21-.47-.41-1-.62-1.42,0-.09-.07-.19-.11-.28l.05,0,.39.79a14.65,14.65,0,0,1,.69,1.81Z"/><path class="cls-1" d="M224.56,38.67l.16-2h.05a.6.6,0,0,1,.06.11.49.49,0,0,1,0,.17l-.21,1.6s0,.07,0,.11Z"/><path class="cls-1" d="M216.26,55.63l.75-.46c.23-.14.47-.26.74-.41A2.57,2.57,0,0,1,216.26,55.63Z"/><path class="cls-1" d="M217.56,18.62l-.72-.61-.21-.18a8.29,8.29,0,0,1-.71-.62,8.85,8.85,0,0,1,1.68,1.36Z"/><path class="cls-1" d="M224.48,17.36h0l-.6-.78-.16-.22a2.86,2.86,0,0,1,.83.82q.33.48.63,1c-.17-.22-.34-.43-.52-.64Z"/><path class="cls-1" d="M219,53.85c.49-.52,1.05-1,1.56-1.45a10.13,10.13,0,0,1-1.5,1.5Z"/><path class="cls-1" d="M219.2,12.3l.26.26,1,.78a1,1,0,0,1,.15.14h0l-.27-.15-1.47-1.13-.2-.19,0,0,.51.31Z"/><path class="cls-1" d="M180,33.12l-.12,1.73a3.77,3.77,0,0,1,.06-1.74Z"/><path class="cls-1" d="M226.06,28.51l-.57-1.68-.08-.21.13,0,0,0a3.4,3.4,0,0,1,.12.34c.1.36.2.73.29,1.1a3.65,3.65,0,0,1,.07.46Z"/><path class="cls-1" d="M219.16,54.29l1.45-1.4A4.52,4.52,0,0,1,219.16,54.29Z"/><path class="cls-1" d="M215.6,60.71l2.23-.93a11.45,11.45,0,0,1-2.21,1Z"/><path class="cls-1" d="M197.89,63l2.13.52A6,6,0,0,1,197.89,63Z"/><path class="cls-1" d="M216.09,55.8a9.28,9.28,0,0,1-1.75.8c0-.17.09-.19.21-.2a.77.77,0,0,0,.27-.07l1.24-.59Z"/><path class="cls-1" d="M205.4,63.08a2.61,2.61,0,0,0,.28,0l1.86-.13a3.93,3.93,0,0,0,.44-.1,1.06,1.06,0,0,1,.31,0A10.44,10.44,0,0,1,205.4,63.08Z"/><path class="cls-1" d="M226.78,19.36a8.59,8.59,0,0,1,.95,1.7l-1-1.67Z"/><path class="cls-1" d="M181.4,37.47l.33,1.82h0a7,7,0,0,1-.32-1.81Z"/><path class="cls-1" d="M230.19,29.16a4.73,4.73,0,0,1,.35,1.86Z"/><path class="cls-1" d="M180.51,22.63c-.13.24-.27.47-.41.7s-.09.16-.23.09l.46-.84.18.05Z"/><path class="cls-1" d="M221.54,54.72,223,53.19A6.2,6.2,0,0,1,221.54,54.72Z"/><path class="cls-1" d="M225.33,17.39A16.34,16.34,0,0,1,226.55,19l0,0-1.23-1.65Z"/><path class="cls-1" d="M181,26.25a5.53,5.53,0,0,1,.8-1.68Z"/><path class="cls-1" d="M220,55a11.22,11.22,0,0,1-1.36,1l0,0L220,55Z"/><path class="cls-1" d="M222.74,15.39l-.26-.28-.15-.18v0l.12,0a6.93,6.93,0,0,1,.93,1Z"/><path class="cls-1" d="M195.73,54.27c-.26.07-.81-.29-1.12-.7Z"/><path class="cls-1" d="M227.84,41a12.33,12.33,0,0,1-.53,2.07L227.8,41Z"/><path class="cls-1" d="M213,58.94l1.42-.45A3.9,3.9,0,0,1,213,59Z"/><path class="cls-1" d="M201.45,13a10.85,10.85,0,0,1,2.15,0Z"/><path class="cls-1" d="M195,15.9a6.61,6.61,0,0,1-1.27.51A5.19,5.19,0,0,1,195,15.9Z"/><path class="cls-1" d="M196.11,59.27c-.26-.08-.55-.07-.76-.28a1.09,1.09,0,0,0-.27-.11l-.19-.08,0-.06,1.22.47Z"/><path class="cls-1" d="M222,51.32a.54.54,0,0,1-.07.19c-.34.41-.69.81-1,1.22l0,0L222,51.33Z"/><path class="cls-1" d="M222,50.23l.78-1.22.06,0a13.76,13.76,0,0,1-.77,1.21Z"/><path class="cls-1" d="M203.68,62.08a14.56,14.56,0,0,0,2.48-.08v.08l-.64,0c-.38,0-.76,0-1.14,0A1.53,1.53,0,0,1,203.68,62.08Z"/><path class="cls-1" d="M188.45,17.64c.06-.06.1-.12.16-.17l.4-.3a1,1,0,0,0,.13-.16.25.25,0,0,1,.31-.1.81.81,0,0,1-.11.13,3.26,3.26,0,0,0-.74.59s-.08,0-.12,0Z"/><path class="cls-1" d="M183.1,21.51a2.15,2.15,0,0,1-.58.9A2.68,2.68,0,0,1,183.1,21.51Z"/><path class="cls-1" d="M215.19,12.42a4,4,0,0,1-1.05-.58A3,3,0,0,1,215.19,12.42Z"/><path class="cls-1" d="M194.56,12.86l1.33-.38-.07.1-.09.05-1.09.29s0,0-.08,0Z"/><path class="cls-1" d="M218.16,57.86a1.39,1.39,0,0,1-1,.53Z"/><path class="cls-1" d="M194.29,60.44l-.21-.06.08.17-.49-.24,0-.19.6.27Z"/><path class="cls-1" d="M226.93,25.1c.17.52.43,1,.56,1.53h-.05l-.57-1.52Z"/><path class="cls-1" d="M221.8,20.1l-.84-1A2.46,2.46,0,0,1,221.8,20.1Z"/><path class="cls-1" d="M196.88,58.07a1.93,1.93,0,0,1-.86-.33A1.69,1.69,0,0,1,196.88,58.07Z"/><path class="cls-1" d="M212.05,57.27l1.4-.44,0,.06A7.84,7.84,0,0,1,212.05,57.27Z"/><path class="cls-1" d="M208.89,56.84a7.51,7.51,0,0,1-1.77.28Z"/><path class="cls-1" d="M230.58,33.87l0,1.68h-.07V33.88Z"/><path class="cls-1" d="M196.4,59.19c-.41,0-.69-.33-1.07-.44l0,0,1.07.44Z"/><path class="cls-1" d="M215.43,13.35l-1.1-.62,0,0a4,4,0,0,1,1.08.63Z"/><path class="cls-1" d="M195.16,61.47h-.09l-.23-.12,0,0a4.35,4.35,0,0,1,.86.22A.9.9,0,0,1,195.16,61.47Z"/><path class="cls-1" d="M226.11,19.52l-.6-.9A2,2,0,0,1,226.11,19.52Z"/><path class="cls-1" d="M224.32,31l0,.61h0l-.22-1.08h0l.16.48Z"/><path class="cls-1" d="M228.85,25.19l.43,1.3-.07,0-.42-1.3Z"/><path class="cls-1" d="M209.43,57.8l.85-.19c0,.17-.08.19-.17.19Z"/><path class="cls-1" d="M179.87,27.55a2,2,0,0,1,.43-1l-.18.42c0,.12-.07.25-.12.37s-.09.15-.13.23Z"/><path class="cls-1" d="M214.69,13.81a1.13,1.13,0,0,1,.72.29C215.27,14.17,215.27,14.17,214.69,13.81Z"/><path class="cls-1" d="M219.2,12.3l0,0,0-.06a1.15,1.15,0,0,1,.78.56Z"/><path class="cls-1" d="M212.3,60.17a5.71,5.71,0,0,1,1.19-.39l0,.06Z"/><path class="cls-1" d="M216.86,59.53l-.26.09-.36.1,0,0,1.12-.47Z"/><path class="cls-1" d="M225.27,26.8a4.17,4.17,0,0,1,.39,1.07l0,0c0-.09-.08-.19-.11-.28s-.14-.41-.2-.61a.71.71,0,0,1,0-.2Z"/><path class="cls-1" d="M224.69,54.43c.12-.15.23-.3.35-.44a3.18,3.18,0,0,1,.41-.41l-.7.9Z"/><path class="cls-1" d="M230,30.41l.14.06-.07-.49h0l.14.73-.07-.09-.09.25C230.08,30.71,230,30.58,230,30.41Z"/><path class="cls-1" d="M225.9,26.26a1.18,1.18,0,0,1,.13.18c.11.31.21.63.3.95l-.07-.11-.36-1Z"/><path class="cls-1" d="M217.8,19.06l.85.85,0,0-.89-.82Z"/><path class="cls-1" d="M218.14,58.09l.84-.53,0,0-.39.27-.3.25a.66.66,0,0,1-.15,0Z"/><path class="cls-1" d="M226,19.61a2.3,2.3,0,0,1-.5-.74A2.54,2.54,0,0,1,226,19.61Z"/><path class="cls-1" d="M208.05,63.21l-1.32.11v0l1.33-.12Z"/><path class="cls-1" d="M190,16.74a1.1,1.1,0,0,1,.68-.47Z"/><path class="cls-1" d="M181.61,25.39a3.05,3.05,0,0,1,.5-.92l-.45.94Z"/><path class="cls-1" d="M228.09,48.63a3.74,3.74,0,0,1,.37-.87l0,0-.38.87Z"/><path class="cls-1" d="M229.2,28.91l.14.64h0l-.09-.26,0,.16C229.15,29.28,229.05,29.11,229.2,28.91Z"/><path class="cls-1" d="M195.41,58.53l.77.32c-.16.07-.16.06-.4-.08l-.38-.19Z"/><path class="cls-1" d="M222.79,16.87a.44.44,0,0,1-.32-.46l.36.42Z"/><path class="cls-1" d="M213.32,58.23l-.9.29,0-.06.9-.3Z"/><path class="cls-1" d="M222.52,53.32l-.64.68,0,0,.65-.68Z"/><path class="cls-1" d="M229.87,29l-.16-.89a2.55,2.55,0,0,1,.23.88Z"/><path class="cls-1" d="M224.49,24.08l.41.91,0,0-.44-.9Z"/><path class="cls-1" d="M221.38,40.21l-.18.79a1.5,1.5,0,0,1,.13-.8Z"/><path class="cls-1" d="M194.42,53.44,193.9,53l0,0a1.51,1.51,0,0,1,.53.44Z"/><path class="cls-1" d="M185.43,46.08a1.71,1.71,0,0,1-.4-.59l0,0,.42.57Z"/><path class="cls-1" d="M191.68,15.66l-.7.42,0-.07.7-.41Z"/><path class="cls-1" d="M187.89,48.34c-.31-.16-.59-.46-.59-.64Z"/><path class="cls-1" d="M193.33,60.94l.76.26,0,.07-.76-.26Z"/><path class="cls-1" d="M219.89,58.59l.62-.45,0,.06-.62.45Z"/><path class="cls-1" d="M187.44,16.57l-.62.53c.05-.17.23-.34.6-.56Z"/><path class="cls-1" d="M219.28,59l-.65.36,0,0a3.25,3.25,0,0,1,.65-.38Z"/><path class="cls-1" d="M180.51,22.63a.46.46,0,0,1,.2-.58c0,.24-.16.39-.2.58Z"/><path class="cls-1" d="M227,21.67l.3.51a.55.55,0,0,1-.34-.49Z"/><path class="cls-1" d="M193.68,60.91a2.06,2.06,0,0,1-.64-.24l0-.06.64.25Z"/><path class="cls-1" d="M214,12.51l-.79-.35,0-.05a4.68,4.68,0,0,1,.79.36Z"/><path class="cls-1" d="M227.19,40.93l.15-1.1h.06l-.21,1.08Z"/><path class="cls-1" d="M223,16.25l.38.32a.36.36,0,0,1-.41-.27Z"/><path class="cls-1" d="M184.72,19l.42-.37,0,0a1.59,1.59,0,0,1-.47.46l0-.12Z"/><path class="cls-1" d="M227.65,22.08a1.42,1.42,0,0,1,.29.54l-.05,0-.28-.53Z"/><path class="cls-1" d="M180.8,25.13l.26-.58C181.11,24.73,181.11,24.73,180.8,25.13Z"/><path class="cls-1" d="M209.46,11l-.45-.12a2.39,2.39,0,0,1-.44-.18l.92.26Z"/><path class="cls-1" d="M186.4,19.17h0l.19,0a.59.59,0,0,1-.37.34Z"/><path class="cls-1" d="M221.67,14.8l.5.46,0,0a1.38,1.38,0,0,1-.49-.47Z"/><path class="cls-1" d="M178.57,26.92l-.14.5h-.05A.42.42,0,0,1,178.57,26.92Z"/><path class="cls-1" d="M195.23,15.76l.73-.25A1,1,0,0,1,195.23,15.76Z"/><path class="cls-1" d="M230,26.05l.26.76h0l-.26-.74Z"/><path class="cls-1" d="M226.54,32.08c0,.13,0,.25,0,.38s0,.24.05.36h-.05l-.08-.75Z"/><path class="cls-1" d="M221.52,18.4l.42.48-.05,0a2.78,2.78,0,0,1-.42-.48Z"/><path class="cls-1" d="M229,35.12v1.09h0v-1.1Z"/><path class="cls-1" d="M186.12,47l.36.52a.81.81,0,0,1-.4-.49Z"/><path class="cls-1" d="M200.43,64.29l-.63-.09v-.06l.63.08Z"/><path class="cls-1" d="M181.12,26.71l-.25.63-.05,0,.25-.63Z"/><path class="cls-1" d="M179.22,38.35c-.16-.15-.13-.32-.08-.53a1.16,1.16,0,0,1,.06.16C179.21,38.1,179.22,38.22,179.22,38.35Z"/><path class="cls-1" d="M208.39,61.88l-.67.09v-.06l.69-.07Z"/><path class="cls-1" d="M214.52,57.1l.49-.16v0l-.65.29.16-.18Z"/><path class="cls-1" d="M210.35,61.55l.9-.18v0l-.89.18Z"/><path class="cls-1" d="M226.69,36.43a.57.57,0,0,1,0,.46A.45.45,0,0,1,226.69,36.43Z"/><path class="cls-1" d="M195.56,54.65l.54.21a1,1,0,0,1-.57-.15Z"/><path class="cls-1" d="M226.41,22.07l-.26-.49a.71.71,0,0,1,.3.47Z"/><path class="cls-1" d="M196.42,58.09l.65.17,0,.05-.65-.17Z"/><path class="cls-1" d="M220.75,13.47l-.43-.37a.77.77,0,0,1,.47.32Z"/><path class="cls-1" d="M207.15,62l-.68.08V62l.68-.06Z"/><path class="cls-1" d="M219.79,57.07c.15-.22.3-.33.43-.3Z"/><path class="cls-1" d="M184.21,19.74l-.43.5,0,0,.43-.51Z"/><path class="cls-1" d="M224.3,37.24l0,.55h-.07l0-.54Z"/><path class="cls-1" d="M228.21,22.49,228,22a.59.59,0,0,1,.27.45Z"/><path class="cls-1" d="M182.25,42.84l-.17-.57h0l.2.56Z"/><path class="cls-1" d="M183.55,20.66l-.41.45A.6.6,0,0,1,183.55,20.66Z"/><path class="cls-1" d="M186,16.6l-.46.4,0,0,.46-.4Z"/><path class="cls-1" d="M221,16.75l.45.47A.94.94,0,0,1,221,16.75Z"/><path class="cls-1" d="M205.33,10.89l.89,0V11l-.89-.1Z"/><path class="cls-1" d="M188.17,16.55l0,0-.25,0c.11-.18.26-.18.37-.24l0,0Z"/><path class="cls-1" d="M188.28,16.21l.38-.21,0,.05c-.11.09-.2.24-.38.21Z"/><path class="cls-1" d="M230.66,41l.06-.52h.07l-.08.53Z"/><path class="cls-1" d="M221.34,16.1l.32.32,0,0-.32-.33Z"/><path class="cls-1" d="M220.59,13.48l.4.32,0,0a.88.88,0,0,1-.37-.37Z"/><path class="cls-1" d="M218.93,13.93l.25.33c-.17,0-.16-.22-.29-.28Z"/><path class="cls-1" d="M197.82,14.44l.64-.13v0l-.32.09-.32.05Z"/><path class="cls-1" d="M181.85,40.21l-.12-.52.05,0,.16.52Z"/><path class="cls-1" d="M231.85,35.23c0-.19-.11-.38,0-.58Z"/><path class="cls-1" d="M182.28,17.33a1.54,1.54,0,0,1-.42.53l0,0,.4-.54Z"/><path class="cls-1" d="M186.52,14.07a3.2,3.2,0,0,1-1.14.85A5.13,5.13,0,0,1,186.52,14.07Z"/><path class="cls-1" d="M231.45,22.42a9.21,9.21,0,0,1-.79-1.68C230.84,21.32,231.28,21.79,231.45,22.42Z"/><path class="cls-1" d="M231.71,23.33l-.25-.57C231.53,23,231.87,23,231.71,23.33Z"/><path class="cls-1" d="M230.56,20.6a.42.42,0,0,1-.24-.38A.46.46,0,0,1,230.56,20.6Z"/><path class="cls-1" d="M192.58,63.38a1.54,1.54,0,0,1,.85.35l0,.05a2.27,2.27,0,0,1-.25-.06,1.84,1.84,0,0,0-.25-.09c-.1,0-.19-.07-.23-.19s-.06,0-.09-.06Z"/><path class="cls-1" d="M192.4,63.08a1.24,1.24,0,0,1,.71.13A.81.81,0,0,1,192.4,63.08Z"/><path class="cls-1" d="M230.67,26l.25.76-.06,0-.25-.76Z"/><path class="cls-2" d="M2.8,32.29H28.55v-18h2.8v42.5h-2.8V34.84H2.8V56.76H0V14.26H2.8Z"/><path class="cls-2" d="M71.11,14.26v42.5h-2.8V14.26Z"/><path class="cls-2" d="M108.07,56.76V13.81l35.68,37.34V14.26h2.8V57.84L110.87,20.5V56.76Z"/><path class="cls-2" d="M262.77,34.26l20.07-20h3.7L266,34.58l21.79,22.18h-3.82l-20-20.27-1.15,1.09V56.76H260V14.26h2.8Z"/><path class="cls-2" d="M322.67,14.26v42.5h-2.81V14.26Z"/><path class="cls-2" d="M7.13,80.8h-6v6.39H7v1H1.16v9.11H0V79.75H7.13Z"/><path class="cls-2" d="M37.77,88.59a9,9,0,0,1-9.13,9,9.07,9.07,0,1,1,9.13-9Zm-1.21,0a7.92,7.92,0,1,0-7.92,8A7.82,7.82,0,0,0,36.56,88.59Z"/><path class="cls-2" d="M59.52,97.35,53.82,89h-.53v8.31H52.13V79.75h2.53a6.15,6.15,0,0,1,3.72.89,4.37,4.37,0,0,1,1.82,3.78,4.22,4.22,0,0,1-3,4.27,6.74,6.74,0,0,1-2.17.35l5.76,8.31ZM53.29,88H55c2.51,0,4-1.32,4-3.59a3.27,3.27,0,0,0-1.56-3.06,6.29,6.29,0,0,0-2.69-.53H53.29Z"/><path class="cls-2" d="M83.48,80.8H76.2v6.39h7.13v1H76.2v8.05h7.28v1.06H75V79.75h8.44Z"/><path class="cls-2" d="M105.87,82.73a3.79,3.79,0,0,0-3.46-2.17,3.13,3.13,0,0,0-3.27,3.28c0,1.9,1.32,2.53,3.08,3.4a24.79,24.79,0,0,1,3.51,1.85,3.86,3.86,0,0,1,1.88,3.4,5.27,5.27,0,0,1-5.49,5.15A5,5,0,0,1,98,95.79a5.83,5.83,0,0,1-1.14-1.92l1-.48a5.76,5.76,0,0,0,.95,1.69,4.22,4.22,0,0,0,3.29,1.5,4.09,4.09,0,0,0,4.25-4.06,3.1,3.1,0,0,0-1.71-2.77c-.5-.29-1.53-.82-3-1.53-1.75-.85-2.62-1.32-3.22-2.33a3.7,3.7,0,0,1-.56-2,4.27,4.27,0,0,1,4.51-4.38A4.72,4.72,0,0,1,106.71,82Z"/><path class="cls-2" d="M124.61,80.8V97.35h-1.17V80.8h-4.56v-1h10.29v1Z"/><path class="cls-2" d="M159.18,79.75H163c3.06,0,4.85,1.76,4.85,4.4A4.31,4.31,0,0,1,165.83,88a4.21,4.21,0,0,1,3.65,4.4c0,3.09-2.27,4.94-5.47,4.94h-4.83Zm1.16,8h2.8a3.39,3.39,0,0,0,2.4-.74,3.3,3.3,0,0,0,1.16-2.69,3.43,3.43,0,0,0-1.18-2.75,4.59,4.59,0,0,0-2.93-.74h-2.25Zm0,8.57h3a5.37,5.37,0,0,0,3.83-1.05,3.43,3.43,0,0,0,1.13-2.69,3.21,3.21,0,0,0-1.87-3.28,7.89,7.89,0,0,0-3.3-.5h-2.75Z"/><path class="cls-2" d="M192.94,91.57h-7.5l-2.34,5.78h-1.27l7.41-18.13,7.32,18.13h-1.27Zm-.42-1.06-3.3-8.34-3.35,8.34Z"/><path class="cls-2" d="M212.21,80.8V97.35h-1.16V80.8h-4.57v-1h10.29v1Z"/><path class="cls-2" d="M231.24,87.21H241.9V79.75h1.16v17.6H241.9V88.27H231.24v9.08h-1.16V79.75h1.16Z"/><path class="cls-2" d="M259.53,79.75v17.6h-1.16V79.75Z"/><path class="cls-2" d="M274.84,97.35V79.56L289.62,95V79.75h1.16v18L276,82.33v15Z"/><path class="cls-2" d="M315.28,88.9h7.39a9.47,9.47,0,0,1-1.8,5.78,8.15,8.15,0,0,1-6.62,3,8.84,8.84,0,0,1-9.11-9,9,9,0,0,1,9.19-9.08,8.49,8.49,0,0,1,5.51,1.9A9.84,9.84,0,0,1,322,83.63l-.92.73a8.1,8.1,0,0,0-1.69-2,7.9,7.9,0,0,0-13,6.23,7.76,7.76,0,0,0,7.86,7.94,7.3,7.3,0,0,0,6.12-3A7.92,7.92,0,0,0,321.51,90h-6.23Z"/></g></g></svg>