<svg xmlns="http://www.w3.org/2000/svg" viewBox="0 0 1200 120.05"><defs><style>.cls-1{fill:#fff9f5f2;fill-rule:evenodd;}</style></defs><g id="Layer_2" data-name="Layer 2"><g id="Layer_1-2" data-name="Layer 1"><path class="cls-1" d="M0,0V106.27s.23,1.19.53.89c-.17,1.39.47.83.87,1.63.33.25,1-.68,1.57-.32.27,0,.6-.66.81.15.72,2.3,1.15-.1,1.9.65.21.53.49.77.76.66s.38,1.29.6,1.29c.84.48.56-1.09,1.14.33.75,1.41.92-1,1.58-.33a2.41,2.41,0,0,1,1.73,2c.61,2.14.91-1.93,1.52-1,.71,1.74,1.37-1.13,2,.65.27,1,.59.82.87,1,.49.07,1.46,1.15,1.68,1.3,0,0,.55,3.29,1.19,1.79.06-.49.87-.65.87-.65.92.28,1.75,3,2.88,2.27.54-.13,1.57.23,2.12.17.69.34.18-1.64.65-1.63,0,0,.16-1.14.32-.49s.33,1.14.65,1.14.6,0,.82.33-.05-1,.21-1c.53-.32.59,2.08,1.09,2.11,0,0,.33-1.29.44-.81a2.1,2.1,0,0,0,.81,1.14c1.38-1.51,0,1.17,2.06,0a1.55,1.55,0,0,1,.71-.49c1.66,1.47,2.29,1.38,3.91-.32.56-.11,1.23-.87,1.68-1.33s.53.33.7-.16c.46-1.25.57,1.1,1,.33a1.75,1.75,0,0,1,.87-.65c.52.1,1.24-.07,1.3-.65.38.07.67,1.5.92.48.17-.64.55-1.13.6-.64,0,1.42.73.35,1.14,1,1.84-.23.81-2.31,2.23.81.75.82,1-.22,1.19-1a16.47,16.47,0,0,0,1.14-1.46,2.48,2.48,0,0,1,.71.32c.42.32.58,2.4,1.25,2.27,1,.41,1.42,1,1.68-.81.53-1.27,1.06-1.07,1.9-1.3.27,0,.59,1.3.92,1.3s.87-.81.87-.81c1.06.69,1.86-1.18,2.82-1.14.58.52.71.42,1.41.49,1.24,1.47-.06-.87,1.41-.81.9.39.89,3.21,1.85,1.14.63,1.37.82.9,1.79.32.69.7.59-1.54.87-1.46.77.45,1.56-.3,2.34-.16.78-.44.91.69,1.24,1,1.83-.45.94.71,1.84,1.14.38-.15-.16-1.76.38-1.79.22,0,.44.33,1,0,.72-.58,1.29.72,1.84.49.91-.7.93.1,1.79.51,1.22-.24,1.8,1.29,2.56,1.48,1.21-1.07,1.21,1.11,2.33,1,.19-.16.1-2,.49-1.46s.94,2,1,1.3c-.91-4.8,1.87.09,4.34-2,.75-.66,2.39-1.79,3.2-.49.87.53,2.45-.61,3.31.17,1,2.28,1.52-.09,4.24,1.3,1,.8,1.13-.24,1.57-.82a3.56,3.56,0,0,0,1.57-1.29c3.31-.33,3-3,4.24.16,2.18-.33-.8-3.54,2.71-1.62.42-.77,1.46-.29,2.12,0,.65-.26,1.64.86,2.06,1s1.57-1.67,2.33-.82c1.19,2.59.87,1,2.12.17,1.83.72.7-3.07,1.74-3.57,3.91,6.61,2,.61,4.18,3.9.43,1.4.67-2.72,2.66-.65.32.65.76,1.62.92,1a11.77,11.77,0,0,0,1.9-3.09,29.88,29.88,0,0,1,4.51-3.89c1.09.57,1.33-1.58,1.79-2.12.22-.32.59,0,.81-.81.24-1.9-.08-1.52,1.2-2,.39-.74.9-.22,1.35-.81.33-.32.71-.65,1-.32s.82-1,1.09-.33,1.14,2.44,1.35,1.63c.26-1.73,1.07-4.22,2.17-1.79,1.72-1.44,1.08,1.36,1.8.49.5-2.11,1,1.25,1.25-.17a4.09,4.09,0,0,1,.27-1.79.8.8,0,0,1,.65-.15,1.13,1.13,0,0,1,1,.8c.9,2.38.63-1.38,2.55-.32.74-1.69,1,1.15,1.68.65.22-.16.71.32,1.09.32s.81-1,1-.48c1.16,3.2.51,0,1.58.65.21.32,1,1.13,1.19,1a.87.87,0,0,1,1,.32c.78,1.1.93-1,1.57-.15.32.32.87,1.13,1,.65.47-1.66,2.46.25,3,.81,1.59-.1,1.22.77,2.65-.65,1.61,1.24.91-.5,1.9,0,.44.48.71-.15,1.09,0,1.22,2.87,1.69-1.49,3-1.46.71.81,1.12,1.71,2.39.8.73-.45,1.37.44,1.68-.8.5-1.44,1.09.47,1.36-2h.81c.16,0,.49-1.65.6-.84.26,1.45.68,1.51,1.57,1,1.09.41,5,9.69,5.76,6.66,0-1.14.82,0,.6-1a4.16,4.16,0,0,1-.06-1.62c.1-1.66.89.66,1.42-.33,0,0,.32-1.62.59-1.62.68-.51,1.11,2.62,1.52,1.3.17-.65,1.14-.17,1.36,0,.66.43,1.25-.44,1.9-.17a4.53,4.53,0,0,0,1,.33c.25-.72,2.76-3.29,3-2,.11.82.21.82.6.82.88-.13,1.38.35,2.12.32.22,0,.6,1.29.82.65s.32-.65.65.16c.91,2.4.84-1.27,1.14-1.3,3.17,2.45,2.23-2.36,3.9,2.28.89.21,1.49-1.36,2.13-.17.27.49.05,1.3.49,1.14,1.2-1.08.84,2.23,1.52,1.79.32-.33.32-.65.49-1.14.6-2.06,1.37,1,2.11.32.38-.32.81-.64,1.14-.32.54.15.86,2.52,1.47,1,.21-.48.76-1,.87-.16.29,1.93,1.37,2.07,2.71,2.44.28-.08.84,2.79,1.25,1.78.75-2.23.78,1.49,1.52.65s.65,1.83,1.35,1.63c.17,0,.06,1.3.6,1.3s.6.33.93-.32c.62-1.22,1.41-.21,1.79-2,.47-1.08,1.77,1.09,2.17.65.55-.92,2-.56,2.71-1.3,1.2-2,1.14.18,2.06-.16,1.16-.56,3.48-.77,4.35-1.95.17-.65.6.32,1-.65.93-.84,1.51-3.76,2.34-3.08,2.08-1.93,1.28,0,2.6.81,1-.56,1.51.72,2.5.49.33,0,.87-1.3,1.14-.49.44,2,.9,1.14,2,1.14,1,.75,2,.19,3,1,.49.65.76.81,1.09.32,2.39-.38.8-3.18,1.79-3.08,1.39,1,.85-1.91,2-2a1.53,1.53,0,0,0,1.25-1.63c.62-1.06.83-2.8,1.41-3.4.7-.78,1.38-.1,2-.82.78-2.21,1-.74,2.18-.81.32-.32.76,0,1-.32s.76.65,1,.48.76.49,1.08.49c2.53-.83.8-2.86,4.4-2.92,2.14.33,2.09-2,2.82-2,.11.65.11,1.94.6,1.13.64-1.48.53,1.17,1.3.49a2.13,2.13,0,0,0,.23.36c.51.52.48-2,1.08-.68.59,1.52.78-1.28,1.46-.49.44.49.43,1,.65.16s.49-.16,1.09-.32.7-1.13,1.14.16c1,3.38.49-1.16,2.33-.16,1.19-.45,1.7,2.16,2.74,1.74,1.08-1,1.68.62,2.67.67,2-1.23,1.93,2.88,2.49,1.3,0-2-.36-3.17,1.52-2.6.33,0,.76-.34.87.49s.87,1.64,1.25.84c2.31-4.29,3.32-.63,5.43,1,.55.49,1.31,1.3,1.52.49.6-2.54,1.24-.1,2.23-.65,1.13-1.56.85-.81,2.5-1.14a3.9,3.9,0,0,1,2.51-.49c1.65-1.3,1.51,1,2.55,1.46.44,0,.49.17.71.49,1.11.66.8.6,1.57,2.11a7,7,0,0,1,2.5,2.77c1.07-.38,1.54-.51,2,1,.75,1.3,1.87,2.29,3.09,1,1.34-.39.68,1.4,3.85,1,.48-.2,1.29,2.19,1.9,1.3.33-.33.71,1.13,1.09,0a3,3,0,0,1,1.52-2c.49-.16,1.09.49,1.58-.16.88-2,1.38.62,2.33,0,.87-.95,1.77.49,2.61,0,.32-.33.92-.82,1.24-.49.69.32.88,3,1.58,2.92.38-.16.7-.32.87.16.35,1.71,1.19.85,1.73,2.28.67.51,1.14,2.08,2.23,2.11,1.12.53,1.16-2.52,1.95-1,.54,1.82,2.52,1.47,3.51,2.66v-7s.24,1.19.56.89c-.18,1.4.52.83.92,1.63.36.24,1.11-.68,1.68-.32.28,0,.63-.66.86.15.67,2.22,1.24,0,2,.65.22.53.52.77.81.66s.4,1.29.63,1.29c.87.49.61-1.09,1.21.33.79,1.41,1-1,1.68-.33a2.48,2.48,0,0,1,1.84,2c.64,2.14,1-1.93,1.62-1,.74,1.74,1.45-1.13,2.07.65.53,1.31,2,1.24,2.71,2.27.05.07.61,3.3,1.27,1.79.06-.49.93-.65.93-.65,1,.28,1.88,3,3.05,2.27.41-.32.75.17,1.21.17,2.5.15.81-.5,1.73-1.63.3-1.81.46.87,1,.65.35,0,.64,0,.87.33s0-1,.23-1c.53-.32.63,2.08,1.15,2.11.54-2.13.49.17,1.33.33,1.47-1.51,0,1.17,2.19,0a1.6,1.6,0,0,1,.75-.49c1.75,1.46,2.44,1.39,4.15-.32.59-.1,1.31-.86,1.79-1.33s.57.33.74-.16c1-1.32-.2,1.58,2-.32.53.1,1.32-.06,1.39-.65.4.06.71,1.5,1,.48.18-.64.58-1.13.64-.64,0,1.43.79.35,1.21,1,1.91-.22.9-2.29,2.37.81.76.81,1.11-.18,1.27-1,.3-.44.9-.92,1.21-1.46a2.69,2.69,0,0,1,.75.32c.45.32.62,2.4,1.32,2.27,1.08.37,1.52,1,1.79-.81.58-1.28,1.14-1.07,2-1.3.29,0,.63,1.3,1,1.3s.92-.81.92-.81c1.11.68,2-1.18,3-1.14.62.52.77.42,1.5.49,1.33,1.46-.09-.86,1.5-.81,1,.44.94,3.15,2,1.14.67,1.38.89.88,1.91.32.72.72.63-1.52.92-1.46.82.45,1.66-.3,2.48-.16.81-.44,1,.66,1.32,1,1.95-.45,1,.68,2,1.14.41-.15-.19-1.76.4-1.79.23,0,.46.33,1,0,.77-.58,1.38.72,2,.49.93-.7,1,.09,1.9.51,1.27-.24,1.91,1.27,2.71,1.48,1.27-1.07,1.31,1.1,2.48,1,.37-1.59.18-2,1.16-.48s.07-1,.23-1.3c.28-1.48,1.66.21,2.13,0a2.89,2.89,0,0,0,2.71-.33c.81-.67,2.54-1.79,3.4-.49.94.53,2.59-.61,3.52.17,1,2.26,1.7-.08,4.5,1.3,1.1.79,1.2-.2,1.67-.82a3.67,3.67,0,0,0,1.67-1.29c3.44-.31,3.22-3,4.5.16,2.3-.31-.82-3.55,2.88-1.62.44-.77,1.58-.29,2.25,0,.7-.26,1.74.86,2.19,1s1.68-1.67,2.48-.82c1.26,2.59.94,1,2.25.17,1.92.75.76-3,1.85-3.57a1.93,1.93,0,0,1,.92,1c1.29,4.23,2.33.47,3.52,2.93.44,1.39.75-2.72,2.83-.65.34.65.8,1.62,1,1a12.46,12.46,0,0,0,2-3.09,30.71,30.71,0,0,1,4.78-3.89c1.14.58,1.42-1.54,1.91-2.12.23-.32.63,0,.86-.81.24-1.93,0-1.52,1.27-2,.43-.74,1-.22,1.44-.81.35-.32.75-.65,1-.32s.87-1,1.16-.33,1.21,2.44,1.44,1.63c.27-1.78,1.15-4.2,2.3-1.79,1.78-1.44,1.15,1.33,1.91.49.53-2.11,1,1.25,1.32-.17a3.82,3.82,0,0,1,.3-1.79.89.89,0,0,1,.69-.15,1.2,1.2,0,0,1,1,.8c1,2.41.65-1.38,2.71-.32.73-1.64,1.07,1.12,1.79.65.23-.16.74.32,1.15.32s.86-1,1.1-.48c1.09,3,.62,0,1.67.65.23.32,1,1.13,1.27,1,.7-.46,1.47,1.33,2,.32.36-1.3,1.43,1.26,1.79.5.52-1.64,2.59.23,3.17.81,1.65-.1,1.35.75,2.83-.65,1.65,1.24,1-.48,2,0,.47.48.76-.15,1.16,0,1.28,2.88,1.81-1.51,3.17-1.46.74.84,1.22,1.7,2.54.8.75-.45,1.44.44,1.78-.8.55-1.43,1.17.44,1.44-2h.87c.17,0,.52-1.65.63-.84.29,1.48.75,1.49,1.68,1,1.16.43,5.32,9.69,6.11,6.66,0-1.14.87,0,.64-1a4,4,0,0,1-.06-1.62c.1-1.65,1,.67,1.5-.33,0,0,.35-1.62.64-1.62.69-.52,1.18,2.62,1.61,1.3.17-.65,1.21-.17,1.44,0,.7.43,1.33-.44,2-.17a5.08,5.08,0,0,0,1,.33c.21-.68,3-3.34,3.17-2,.12.82.22.82.63.82.94-.13,1.46.35,2.26.32.23,0,.63,1.29.86.65.41-1.75,1.09,2.17,1.5.65.3-3.31.84-.53,2.66-1.14.4-.33,1-.82,1.15-.33.24,1.46.75,2.66,2.08,1.47.94-.93,1,1.67,1.45,1.46,1.26-1.09.89,2.21,1.61,1.79,1.64-3.71.92-.83,2.77-.82.4-.32.86-.64,1.21-.32,2,3.6,1.32-.9,2.48.81.12.87.42,1.45.75,1.47s.57,1,1,.8a1.21,1.21,0,0,1,1.09.17c.29-.07.91,2.8,1.33,1.78.78-2.24.84,1.48,1.61.65s.7,1.83,1.45,1.63c.17,0,0,1.3.63,1.3s.64.33,1-.32c.66-1.22,1.5-.2,1.9-2,.51-1.08,1.89,1.09,2.31.65.6-.92,2.13-.56,2.89-1.3,1.23-2,1.24.18,2.19-.16,1.21-.56,3.69-.77,4.62-1.95.17-.65.63.32,1.09-.65,1-.86,1.63-3.79,2.48-3.08,2.16-1.89,1.37-.09,2.77.81,1.08-.56,1.61.72,2.65.49.35,0,.93-1.3,1.21-.49.48,2.08,1,1.12,2.14,1.14,1.09.74,2.12.18,3.17,1,.52.65.81.81,1.15.32,2.54-.36.85-3.17,1.91-3.08,1.47,1,.89-1.9,2.08-2a1.56,1.56,0,0,0,1.33-1.63c0-1,.69-.64.81-1.62s.23-1.46.69-1.78c.72-.77,1.46-.1,2.13-.82.83-2.23,1.08-.71,2.32-.81.34-.32.8,0,1-.32s.81.65,1.1.48.81.49,1.15.49c2.63-.82.94-2.9,4.67-2.92,2.21.35,2.23-2,3-2,.12.65.12,1.94.64,1.13.74-1.45.5,1.15,1.38.49a2.09,2.09,0,0,0,.22.33c.59.65.51-2,1.17-.65.63,1.52.83-1.28,1.55-.49.47.49.46,1,.7.16s.51-.16,1.15-.32.75-1.13,1.21.16c1.09,3.36.56-1.17,2.48-.16,1.25-.46,1.81,2.16,2.91,1.74,1.13-1,1.79.61,2.83.67.35,0,1.27-.48,1.5,0s1,2.6,1.15,1.3c0-2.12-.31-3.16,1.62-2.6.35,0,.81-.34.92.49s.93,1.64,1.33.84c.63-1.39,1.94-2.45,3.29-1.79.52.75,3.22,4.54,4.1,3.25.25-1,.68-1.44,1.1-1.14.93,1.5,1.84-.33,2.36-.65.5.33,2.32-.11,2.89-.49,3.93-.24,1.5-1.25,4.05,1.46.73,0,.94,1,1.67,1,0,.32.89,2.32,1.85,2.27,1.09.79,1.22,3,2.54,1.79.91-.08,1.63,2.9,2.77,2.92a2.4,2.4,0,0,0,1.61-.65c1.54-.33.68,1.39,4.1,1,.49-.2,1.37,2.19,2,1.3,1.25.63.83.46,1.63-1v.54s.23,1.19.53.89c-.17,1.39.47.83.87,1.63.33.25,1-.68,1.57-.32.27,0,.6-.66.81.15.72,2.3,1.15-.1,1.9.65.21.53.49.77.76.66s.38,1.29.6,1.29c.84.48.56-1.09,1.14.33.75,1.41.92-1,1.58-.33a2.41,2.41,0,0,1,1.73,2c.61,2.14.91-1.93,1.52-1,.71,1.74,1.37-1.13,2,.65.27,1,.59.82.87,1,.49.07,1.46,1.15,1.68,1.3,0,0,.55,3.29,1.19,1.79.06-.49.87-.65.87-.65.92.28,1.75,3,2.88,2.27.54-.13,1.57.23,2.12.17.69.34.18-1.64.65-1.63,0,0,.16-1.14.32-.49s.33,1.14.65,1.14.6,0,.82.33,0-1,.21-1c.53-.32.59,2.08,1.09,2.11,0,0,.33-1.29.44-.81a2.1,2.1,0,0,0,.81,1.14c1.38-1.51,0,1.17,2.06,0a1.55,1.55,0,0,1,.71-.49c1.66,1.47,2.29,1.38,3.91-.32.56-.11,1.23-.87,1.68-1.33s.53.33.7-.16c.46-1.25.57,1.1,1,.33a1.75,1.75,0,0,1,.87-.65c.52.1,1.24-.07,1.3-.65.38.07.67,1.5.92.48.17-.64.55-1.13.6-.64,0,1.42.73.35,1.14,1,1.84-.23.81-2.31,2.23.81.75.82,1-.22,1.19-1a16.47,16.47,0,0,0,1.14-1.46,2.48,2.48,0,0,1,.71.32c.42.32.58,2.4,1.25,2.27,1,.41,1.42,1,1.68-.81.53-1.27,1.06-1.07,1.9-1.3.27,0,.59,1.3.92,1.3s.87-.81.87-.81c1.06.69,1.86-1.18,2.82-1.14.58.52.71.42,1.41.49,1.24,1.47-.06-.87,1.41-.81.9.39.89,3.21,1.85,1.14.63,1.37.82.9,1.79.32.69.7.59-1.54.87-1.46.77.45,1.56-.3,2.34-.16.78-.44.91.69,1.24,1,1.83-.45.94.71,1.84,1.14.38-.15-.16-1.76.38-1.79.22,0,.44.33,1,0,.72-.58,1.29.72,1.84.49.91-.7.93.1,1.79.51,1.22-.24,1.8,1.29,2.56,1.48,1.21-1.07,1.21,1.11,2.33,1,.19-.16.1-2,.49-1.46s.94,2,1,1.3c-.91-4.8,1.87.09,4.34-2,.75-.66,2.39-1.79,3.2-.49.87.53,2.45-.61,3.31.17.95,2.28,1.52-.09,4.24,1.3,1,.8,1.13-.24,1.57-.82a3.56,3.56,0,0,0,1.57-1.29c3.31-.33,3-3,4.24.16,2.18-.33-.8-3.54,2.71-1.62.42-.77,1.46-.29,2.12,0,.65-.26,1.64.86,2.06,1s1.57-1.67,2.33-.82c.38.33.71,2,1,1.47,1.66-2.64,2.23.31,2.35-4,1.13-.14,1.32,3.59,2.11,1.74.71,1.67,1.85-.9,2.55,1.28.44,1.1.44-.73.88-.9a7.2,7.2,0,0,1,2.4,1.52c0,.08.63,3.3,1.32,1.79.06-.49,1-.65,1-.65,1,.28,2,3,3.18,2.27.42-.32.78.17,1.26.17,2.56.16.85-.48,1.8-1.63,0,0,.18-1.14.36-.49s.36,1.14.72,1.14a.94.94,0,0,1,.9.33c.24.32-.05-1,.24-1,.56-.32.65,2.07,1.2,2.11.57-2.12.51.17,1.38.33,1.52-1.49.05,1.17,2.28,0a1.67,1.67,0,0,1,.78-.49c1.8,1.45,2.55,1.39,4.32-.32a5.06,5.06,0,0,0,1.86-1.33c.35-.48.59.33.77-.16.49-1.25.64,1.1,1.14.33a1.9,1.9,0,0,1,1-.65c.53.09,1.36,0,1.44-.65,1.59,2.23.77-1,1.68-.16,0,1.43.83.35,1.26,1,1.94-.16.93-2.34,2.46.81.77.79,1.16-.15,1.32-1a17.49,17.49,0,0,0,1.26-1.46,2.86,2.86,0,0,1,.78.32c.48.33.65,2.4,1.38,2.27,1.09.36,1.58,1.06,1.86-.81.6-1.29,1.19-1.07,2.1-1.3.3,0,.65,1.3,1,1.3s1-.81,1-.81c1.13.69,2.07-1.18,3.12-1.14.65.53.78.41,1.56.49,1.35,1.46-.08-.86,1.55-.81,1,.42,1,3.16,2.05,1.14.67,1.4.95.85,2,.32.74.69.63-1.48,1-1.46.84.45,1.72-.3,2.57-.16.83-.43,1,.64,1.38,1,2-.45,1,.66,2,1.14.43-.15-.18-1.76.41-1.79.24,0,.48.33,1.08,0,.8-.58,1.44.72,2,.49.94-.69,1.06.09,2,.51,1.31-.25,2,1.26,2.82,1.48,1.09-.9,1.27.47,2,.81a1,1,0,0,0,.6.16c.37-1.63.21-2,1.2-.48s.08-1,.24-1.3c.3-1.48,1.74.21,2.22,0a3.14,3.14,0,0,0,2.82-.33c.85-.67,2.63-1.79,3.54-.49,1,.53,2.68-.61,3.66.17.78,2.17,2.08.13,3.6,1,.41.33.41.17,1.07.33,1.13.78,1.24-.19,1.74-.82a3.85,3.85,0,0,0,1.74-1.29c3.49-.28,3.38-3,4.68.16,1,0,1-1,.92-1.91-.07.76.87,2,1.48.92.35-1,1-.29,1.43-1.14.53,0,1,.44,1.51.51.72-.26,1.81.86,2.28,1s1.74-1.67,2.58-.82c.42.33.78,2,1.14,1.47s.9-1.3,1.2-1.3c2,.77.79-3,1.92-3.57a2,2,0,0,1,1,1c1.32,4.23,2.42.47,3.65,2.93.47,1.4.78-2.73,3-.65.35.65.84,1.62,1,1a12.15,12.15,0,0,0,2.1-3.09,22.56,22.56,0,0,1,3.89-3.09s0,0,0,0c.77-.6,1.57,1.69,2.12.66,2.38-.36.81-3.19,1.79-3.08,1.4,1,.85-1.91,2-2,1.17.18,1.07-2,1.7-2.55.54.64,1-.78,1.47-.19,2,4.27,1.14-.89,3.06-1.3.36,0,.48,1.14.84,1.14s1-.82,1.2-.33.6,1.47.78.82c.56-2.11,1.08,1.25,1.38-.17a3.66,3.66,0,0,1,.31-1.79,1,1,0,0,1,.72-.15,1.24,1.24,0,0,1,1.08.8c1,2.39.72-1.39,2.82-.32.73-1.62,1.13,1.11,1.85.65.25-.16.78.32,1.21.32s.89-1,1.14-.48.71,2,.89,1.3.61-1,.85-.65,1.07,1.13,1.31,1c.74-.46,1.53,1.32,2.1.32.37-1.3,1.49,1.27,1.86.5.55-1.64,2.68.22,3.3.81,1.67-.1,1.42.74,2.94-.65,1.75,1.24,1-.5,2.1,0,.48.48.78-.15,1.2,0,1.32,2.87,1.89-1.51,3.29-1.46.78.85,1.29,1.69,2.64.8.77-.45,1.5.45,1.86-.8.58-1.44,1.2.46,1.5-2h.9c.18,0,.54-1.65.66-.84.29,1.5.8,1.48,1.74,1,1.23.43,5.51,9.68,6.36,6.66,0-1.14.9,0,.66-1a3.79,3.79,0,0,1-.06-1.62c.09-1.65,1,.66,1.56-.33,0,0,.36-1.62.66-1.62.72-.53,1.23,2.62,1.68,1.3.61-1,1.73.57,2.5,0,.78,1.3,1.85,2.27,3.09,1,1.17-.47.78,1.41,3.85,1,.5-.2,1.27,2.19,1.9,1.3.33-.33.71,1.13,1.09,0a3,3,0,0,1,1.52-2c1.86.68,1.61-1.23,2.61-.81.53.42.85,1.18,1.45.54.28.26.76,0,1.17-.11.39.21,1,.6,1.38.13.21,2.13.94.12,1.41,1.22.23.94.55,2.41,1.07,1.22,1.56-.41,1,1.28,2,1.55,1.14.42,1.57,2.93,3.09,3.08,1.12.53,1.16-2.51,2-1,.52,1.82,2.53,1.47,3.51,2.66v-1.78c.12.06.22,0,.27-.22.83-2.22.86,1.48,1.68.65s.71,1.83,1.5,1.63c.18,0,.06,1.3.66,1.3s.66.33,1-.32c.67-1.22,1.55-.19,2-2,.51-1.08,1.94,1.08,2.39.65.62-.92,2.23-.56,3-1.3,1.26-2,1.3.18,2.27-.16,1.26-.56,3.83-.76,4.81-1.95.18-.65.66.32,1.14-.65,1-.87,1.7-3.78,2.58-3.08,2.2-1.87,1.43-.12,2.88.81,1.12-.56,1.67.72,2.76.49.36,0,1-1.3,1.26-.49.49,2.1,1.07,1.11,2.22,1.14,1.12.74,2.2.18,3.3,1,.54.65.84.81,1.2.32,2.65-.37.88-3.15,2-3.08,1.53,1,.92-1.88,2.16-2,1.4-.09,1.43-2.25,2.22-3.25,0-2.36,1.6-1.85,2.94-2.6.36-.46.54-1.47,1-1.3a2.14,2.14,0,0,0,2.47.17c.24-.33.84.65,1.14.48,2.55,2,2.74-2.55,4.86-2.27.88.3,1.67-.41,2.76-.33.48-.16,1.44-2.43,1.56-1.78s.12,1.94.66,1.13c.77-1.45.53,1.16,1.44.49,0,0,.54,1,.66.16.06-.62.44-1.22.78-.48.67,1.52.86-1.28,1.62-.49.48.49.47,1,.71.16s.54-.16,1.2-.32.79-1.13,1.27.16c1.1,3.35.61-1.19,2.58-.16,1.28-.46,1.88,2.16,3,1.74,1.19-1,1.86.61,3,.67,2.15-1.25,2.16,2.87,2.75,1.3,0-2.16-.28-3.16,1.68-2.6.36,0,.85-.34,1,.49s1,1.64,1.37.84c3.4-5.87,5,3,7.69,1.46.65-2.55,1.4-.08,2.46-.65,1.27-1.58,1-.8,2.76-1.14a4.77,4.77,0,0,1,2.77-.49c.54-.16,1.2-.65,1.44-.32a5.66,5.66,0,0,0,3.13,2.76c.08.35.9,2.32,1.92,2.27.6.33,1.44,2.12,1.62,2.12,1.11-.34,1.7-.55,2.16,1,.85,1.33,2.1,2.26,3.42,1,1.48-.38.8,1.4,4.26,1,.53-.2,1.41,2.19,2.1,1.3.36-.33.78,1.13,1.2,0a3.06,3.06,0,0,1,1.68-2c.54-.16,1.2.49,1.74-.16,1-2,1.53.61,2.58,0,.95-.94,1.95.49,2.88,0,.36-.33,1-.82,1.38-.49.76.32,1,3,1.74,2.92.42-.16.78-.32,1,.16.4,1.72,1.3.85,1.92,2.28.73.53,1.27,2.08,2.46,2.11,1.23.55,1.26-2.51,2.15-1,.64,1.85,2.79,1.46,3.88,2.66V0ZM930.94,30.85h0Z"/><path class="cls-1" d="M931,30.83l0,0h0Z"/></g></g></svg>